<svg xmlns="http://www.w3.org/2000/svg" viewBox="0 0 683.08 422.16"><defs><style>.cls-1{fill:#f5f5f5;}.cls-2{fill:#fafafa;}.cls-3{fill:#e0e0e0;}.cls-4{fill:#263238;}.cls-5{fill:#455a64;}.cls-6{fill:#fff;}.cls-7{fill:#ff725e;}.cls-8{opacity:0.4;}.cls-9{opacity:0.2;}.cls-10{fill:#ffbf9d;}.cls-11{fill:#ff9a6c;}.cls-12{opacity:0.3;}.cls-13{fill:#6f4439;}.cls-14{fill:#ae7461;}</style></defs><g id="Calque_2" data-name="Calque 2"><g id="Background_Complete" data-name="Background Complete"><rect class="cls-1" x="28.27" y="46.12" width="33.29" height="46.4"/><rect class="cls-1" x="62.84" y="46.12" width="35.97" height="46.4"/><rect class="cls-1" x="62.84" y="95.77" width="35.97" height="44.84"/><polygon class="cls-1" points="103.43 45.32 141.31 45.32 141.31 4.16 142.59 4.16 142.59 45.32 173.42 45.32 173.42 3.24 103.43 3.24 103.43 45.32"/><rect class="cls-1" x="142.59" y="46.12" width="30.83" height="46.4"/><rect class="cls-1" x="142.59" y="95.77" width="30.83" height="44.84"/><rect class="cls-1" x="28.27" y="95.77" width="33.29" height="44.84"/><rect class="cls-1" x="103.43" y="95.77" width="37.88" height="44.84"/><rect class="cls-1" x="28.27" y="141.41" width="33.29" height="40.4"/><rect class="cls-1" x="142.59" y="141.41" width="30.83" height="40.4"/><polygon class="cls-1" points="61.56 45.32 61.56 4.16 62.84 4.16 62.84 45.32 98.82 45.32 98.82 3.24 28.27 3.24 28.27 45.32 61.56 45.32"/><rect class="cls-1" x="103.43" y="141.41" width="37.88" height="40.4"/><rect class="cls-1" x="62.84" y="141.41" width="35.97" height="40.4"/><rect class="cls-1" x="103.43" y="46.12" width="37.88" height="46.4"/><rect class="cls-1" x="338.16" y="42.88" width="33.29" height="46.4"/><rect class="cls-1" x="372.74" y="42.88" width="35.97" height="46.4"/><rect class="cls-1" x="372.74" y="92.53" width="35.97" height="44.84"/><polygon class="cls-1" points="413.32 42.08 451.2 42.08 451.2 0.91 452.48 0.91 452.48 42.08 483.31 42.08 483.31 0 413.32 0 413.32 42.08"/><rect class="cls-1" x="452.48" y="42.88" width="30.83" height="46.4"/><rect class="cls-1" x="452.48" y="92.53" width="30.83" height="44.84"/><rect class="cls-1" x="338.16" y="92.53" width="33.29" height="44.84"/><rect class="cls-1" x="413.32" y="92.53" width="37.88" height="44.84"/><rect class="cls-1" x="338.16" y="138.17" width="33.29" height="40.4"/><rect class="cls-1" x="452.48" y="138.17" width="30.83" height="40.4"/><polygon class="cls-1" points="371.46 42.08 371.46 0.91 372.74 0.91 372.74 42.08 408.71 42.08 408.71 0 338.17 0 338.17 42.08 371.46 42.08"/><rect class="cls-1" x="413.32" y="138.17" width="37.88" height="40.4"/><rect class="cls-1" x="372.74" y="138.17" width="35.97" height="40.4"/><rect class="cls-1" x="413.32" y="42.88" width="37.88" height="46.4"/><rect class="cls-2" x="226.1" y="24.28" width="24.33" height="6.44"/><path class="cls-3" d="M240.14,37.5a.84.84,0,0,1,0-.12v-.33c0-.3,0-.73,0-1.27,0-1.11,0-2.71,0-4.72l.08.08-24.33,0c.06-.05-.12.13.13-.12h0v1.63c0,.54,0,1.08,0,1.62V37.5l-.12-.13,17.34.06,5.11,0,1.39,0h0l-1.36,0-5.09,0-17.42.06h-.12V31.08h0l.12-.12,24.33,0h.07v.08c0,2,0,3.65,0,4.77,0,.53,0,1,0,1.25v.31A.87.87,0,0,0,240.14,37.5Z"/><rect class="cls-2" x="650.11" y="341.56" width="24.33" height="6.44"/><path class="cls-3" d="M664.15,354.78a.83.83,0,0,0,0-.12v-.33c0-.3,0-.73,0-1.27,0-1.11,0-2.71,0-4.72l.08.08-24.32.05c0-.06-.13.12.12-.13h0v3.26c0,1.08,0,2.13,0,3.17l-.12-.12,17.34,0,5.12,0h1.41l-1.36,0-5.09,0-17.42.06h-.12v-6.55h0c.25-.25.07-.07.13-.12l24.32,0h.08v.07c0,2,0,3.65-.05,4.77,0,.53,0,.95,0,1.25v.31A.5.5,0,0,1,664.15,354.78Z"/><rect class="cls-2" x="10.41" y="211.43" width="24.33" height="6.44"/><path class="cls-3" d="M24.45,224.64a.87.87,0,0,0,0-.11v-.34c0-.3,0-.72,0-1.26,0-1.11,0-2.71-.05-4.72l.08.07-24.32.05c0-.05-.13.12.12-.12h0v6.41l-.13-.12,17.34.06,5.12,0,1.38,0H22.63l-5.09,0-17.42,0H0v-6.53H0l.13-.13,24.32,0h.08v.08c0,2,0,3.64-.05,4.76,0,.54,0,.95,0,1.25v.32A.36.36,0,0,1,24.45,224.64Z"/><path class="cls-3" d="M300.53,123.67a.87.87,0,0,0,0-.11v-.33c0-.31,0-.73,0-1.27,0-1.11,0-2.71,0-4.72l.07.07-24.32,0,.12-.12h0v6.41l-.12-.12,17.33.06,5.12,0,1.38,0h.49s0,0-.11,0h-.35l-1.36,0-5.08,0-17.42.06h-.13v-6.54h0c.25-.25.07-.07.13-.12l24.32,0h.08v.08c0,2,0,3.64,0,4.77,0,.53,0,.95,0,1.25v.31A.28.28,0,0,1,300.53,123.67Z"/><path class="cls-3" d="M303.83,117.24a.68.68,0,0,1,0-.12c0-.1,0-.21,0-.34,0-.32,0-.75,0-1.29,0-1.13,0-2.73-.05-4.69l.09.09-14.62,0,.13-.13h0v3.29c0,1.08,0,2.12,0,3.12l-.12-.12,10.46.06,3.05,0h.82l.29,0h-.27l-.79,0-3,0-10.54.06h-.11v-.12c0-1,0-2,0-3.12v-3.29h0l.12-.12,14.62,0h.09v.09c0,2,0,3.6-.05,4.74,0,.53,0,1,0,1.27A3.23,3.23,0,0,1,303.83,117.24Z"/><path class="cls-3" d="M679.69,136a.5.5,0,0,1,0-.11v-.33c0-.31,0-.73,0-1.27,0-1.11,0-2.71,0-4.72l.08.07-24.33,0c.06,0-.12.13.13-.12h0v3.25c0,1.07,0,2.13,0,3.16l-.12-.12,17.34.06,5.12,0,1.38,0h.49s0,0-.11,0h-.35l-1.36,0-5.09,0-17.42.06h-.12v-6.54h0l.12-.12,24.33,0h.08v.08c0,2,0,3.64,0,4.77v1.56C679.69,135.92,679.69,136,679.69,136Z"/><path class="cls-3" d="M683,129.52s0-.05,0-.12v-.34c0-.32,0-.75,0-1.29,0-1.13,0-2.73-.05-4.69l.09.09-14.62,0,.13-.13h0v1.65c0,.55,0,1.1,0,1.64v3.12l-.12-.12,10.46.06,3,0h.82l.3,0h-.27l-.79,0-3,0-10.54.06h-.12v-6.53h0l.12-.12L683,123h.09v.09c0,2,0,3.6-.05,4.74,0,.53,0,1,0,1.27S683,129.53,683,129.52Z"/></g><g id="Floor"><path class="cls-4" d="M669.16,392.18c0,.14-145.94.26-325.93.26s-326-.12-326-.26,145.91-.26,326-.26S669.16,392,669.16,392.18Z"/></g><g id="Device"><path class="cls-5" d="M627.77,314.16l-108.55-.06c-13.05,0-23.63-10.15-23.63-22.67l.06-260.83c0-12.52,10.59-22.67,23.66-22.66L627.85,8c13,0,23.63,10.15,23.63,22.67l-.05,260.83C651.42,304,640.83,314.17,627.77,314.16Z"/><path class="cls-6" d="M627.73,17.22h-21l-61.46,0H519.41c-9.15,0-16.57,7.1-16.57,15.87l0,254.6c0,8.76,7.4,15.87,16.55,15.87l108.32.06c9.15,0,16.57-7.1,16.57-15.87l0-254.59C644.29,24.33,636.88,17.23,627.73,17.22Z"/><path class="cls-7" d="M556.34,227.56a6,6,0,0,1-3.5,1.57v2.26H550.4v-2.18a12.66,12.66,0,0,1-2.88-.52,8.34,8.34,0,0,1-2.26-1l1.32-3a8.91,8.91,0,0,0,4.7,1.4c1.54,0,2.31-.38,2.31-1.16a1,1,0,0,0-.66-.9,12.19,12.19,0,0,0-2.12-.62,20.51,20.51,0,0,1-2.68-.74,4.55,4.55,0,0,1-1.85-1.27,3.41,3.41,0,0,1-.78-2.36,4.1,4.1,0,0,1,1.26-3,6.05,6.05,0,0,1,3.64-1.53v-2.24h2.44v2.2a11.46,11.46,0,0,1,2.22.41,7.64,7.64,0,0,1,1.9.79l-1.23,3a8.22,8.22,0,0,0-4-1.1,3.34,3.34,0,0,0-1.74.35,1.07,1.07,0,0,0-.55.93.9.9,0,0,0,.65.85,11.36,11.36,0,0,0,2.09.59,20.26,20.26,0,0,1,2.69.74,4.77,4.77,0,0,1,1.85,1.26,3.38,3.38,0,0,1,.78,2.35A4,4,0,0,1,556.34,227.56Z"/><path class="cls-7" d="M572.84,227.56a6,6,0,0,1-3.5,1.57v2.26H566.9v-2.18a12.56,12.56,0,0,1-2.88-.52,8.34,8.34,0,0,1-2.26-1l1.32-3a8.84,8.84,0,0,0,4.69,1.4c1.55,0,2.32-.38,2.32-1.16a1,1,0,0,0-.66-.9,12.19,12.19,0,0,0-2.12-.62,21.16,21.16,0,0,1-2.69-.74,4.59,4.59,0,0,1-1.84-1.27,3.41,3.41,0,0,1-.78-2.36,4.1,4.1,0,0,1,1.26-3,6.05,6.05,0,0,1,3.64-1.53v-2.24h2.44v2.2a11.46,11.46,0,0,1,2.22.41,7.64,7.64,0,0,1,1.9.79l-1.24,3a8.15,8.15,0,0,0-3.94-1.1,3.4,3.4,0,0,0-1.75.35,1.08,1.08,0,0,0-.54.93.9.9,0,0,0,.65.85,11.36,11.36,0,0,0,2.09.59,20.26,20.26,0,0,1,2.69.74,4.77,4.77,0,0,1,1.85,1.26,3.38,3.38,0,0,1,.78,2.35A4,4,0,0,1,572.84,227.56Z"/><path class="cls-7" d="M589.34,227.56a6,6,0,0,1-3.5,1.57v2.26H583.4v-2.18a12.75,12.75,0,0,1-2.89-.52,8.26,8.26,0,0,1-2.25-1l1.32-3a8.84,8.84,0,0,0,4.69,1.4c1.55,0,2.32-.38,2.32-1.16a1,1,0,0,0-.66-.9,12.19,12.19,0,0,0-2.12-.62,21.16,21.16,0,0,1-2.69-.74,4.69,4.69,0,0,1-1.85-1.27,3.46,3.46,0,0,1-.77-2.36,4.1,4.1,0,0,1,1.26-3,6,6,0,0,1,3.64-1.53v-2.24h2.44v2.2a11.46,11.46,0,0,1,2.22.41,7.8,7.8,0,0,1,1.9.79l-1.24,3a8.18,8.18,0,0,0-3.94-1.1,3.4,3.4,0,0,0-1.75.35,1.08,1.08,0,0,0-.54.93.9.9,0,0,0,.65.85,11.36,11.36,0,0,0,2.09.59,20.26,20.26,0,0,1,2.69.74,4.77,4.77,0,0,1,1.85,1.26,3.38,3.38,0,0,1,.78,2.35A4,4,0,0,1,589.34,227.56Z"/><path class="cls-7" d="M605.84,227.56a6.07,6.07,0,0,1-3.51,1.57v2.26H599.9v-2.18a12.75,12.75,0,0,1-2.89-.52,8.13,8.13,0,0,1-2.25-1l1.32-3a8.5,8.5,0,0,0,2.21,1,8.69,8.69,0,0,0,2.48.38c1.54,0,2.32-.38,2.32-1.16a1,1,0,0,0-.66-.9,12.09,12.09,0,0,0-2.13-.62,21,21,0,0,1-2.68-.74,4.62,4.62,0,0,1-1.85-1.27,3.46,3.46,0,0,1-.77-2.36,4.1,4.1,0,0,1,1.26-3,6,6,0,0,1,3.64-1.53v-2.24h2.43v2.2a11.42,11.42,0,0,1,2.23.41,8,8,0,0,1,1.9.79l-1.24,3a8.18,8.18,0,0,0-3.94-1.1,3.4,3.4,0,0,0-1.75.35,1.07,1.07,0,0,0-.55.93.92.92,0,0,0,.65.85,11.52,11.52,0,0,0,2.1.59,20.26,20.26,0,0,1,2.69.74,4.85,4.85,0,0,1,1.85,1.26,3.38,3.38,0,0,1,.78,2.35A4,4,0,0,1,605.84,227.56Z"/><rect class="cls-3" x="528.03" y="113.46" width="92.41" height="12.56"/><g class="cls-8"><rect x="528.03" y="113.46" width="92.41" height="12.56"/></g><path class="cls-3" d="M625.78,112.71c-2.63-1.62-9.44-4.17-11.33-4.39-1.15-.13-6.25-.83-6.25-.83l-1.65-.13S589,98.65,586.19,97.57c-4.33-1.67-13.48-3.13-23.17-1.93,0,0-13,1.18-15.84,2s-16.82,5.18-16.82,5.18-6.11.64-6,.88a1.88,1.88,0,0,0,.59.87v3.91a9.2,9.2,0,0,0-.85,1.36c-.17.44-.55,3.91-.55,3.91s-1.82,4.34-1.82,5.49,3.31,5.53,4.11,6.18,7.3,1.62,7.3,1.62v-3.28a8.85,8.85,0,1,1,17.7,0l0,4.25h50.7l0-3.16q0-.37,0-.75a8.87,8.87,0,1,1,17.72,0c0,.25,0,.5,0,.75h.18V128h5.85s4.74-3.64,4.61-5.48v-5.2a2.76,2.76,0,0,0-.7-1.85A15.53,15.53,0,0,0,625.78,112.71Z"/><g class="cls-9"><path d="M629.8,118.86l-3.74-1.38-.44,2.11-6-.33s-2.63-5.21-8-5.67a14.45,14.45,0,0,0-8.26,2l-26.3-2.7s-13.34-.53-18.48-.46-9.69,3.94-9.69,3.94-1.51-2.28-6.9-2.34-7.62,3.23-7.62,3.23a21.69,21.69,0,0,1-10.49-4.49l-.27.22c0,.47-.09.8-.09.8s-1.82,4.34-1.82,5.49,3.31,5.53,4.11,6.18,7.3,1.62,7.3,1.62v-3.28a8.85,8.85,0,1,1,17.7,0l0,4.25h50.7l0-3.16q0-.37,0-.75a8.87,8.87,0,1,1,17.72,0c0,.25,0,.5,0,.75h.18V128h5.85s4.74-3.64,4.61-5.48v-3.69Z"/></g><path class="cls-4" d="M539.59,103.12a.65.65,0,0,0,.28,1.15l4.46.61,25.32,2.9,30.87,1.77a1.4,1.4,0,0,0,1.27-.62,1.19,1.19,0,0,0-.29-1.62c-1.3-1.29-7-4.62-8.38-5.28a45.31,45.31,0,0,0-24.88-5.73c-4.27.16-12.45,1.42-23,2.86a1.3,1.3,0,0,0-.62.25Z"/><path class="cls-5" d="M544.86,104.41c.06-.19,2.34-4.66,2.78-4.92s18.87-2.69,19.12-2.36.89,9.71.89,9.71Z"/><polygon class="cls-4" points="551.88 98.81 551.72 105.36 552.67 105.36 552.67 98.7 551.88 98.81"/><path class="cls-4" d="M596.15,103.72l.05.1.13.3c0,.13.13.29.21.49s.16.43.26.69a24.89,24.89,0,0,1,1.08,4.68,39.11,39.11,0,0,1,.22,7.47c-.08,1.44-.23,3-.47,4.57-.12.8-.25,1.62-.43,2.45a3.78,3.78,0,0,1-.16.62,4.48,4.48,0,0,1-.29.58,10.69,10.69,0,0,1-.71,1.09v0h0l-20.93-.39-11.42-.28c-1.81,0-3.58-.07-5.29-.08-.21,0-.42,0-.63,0h-.64a3.14,3.14,0,0,1-1.2-.35,4.38,4.38,0,0,1-1-.74,5,5,0,0,1-.77-1h0c-2-2.78-3.71-5.35-5.26-7.65-.76-1.15-1.48-2.23-2.13-3.24s-1.23-1.93-1.73-2.8a10.72,10.72,0,0,1-.65-1.25l-.13-.31c0-.1-.06-.21-.09-.31s-.06-.19-.08-.29l0-.3a4.43,4.43,0,0,1,.12-2,5,5,0,0,1,.5-1.11,2.94,2.94,0,0,1,.25-.34l-.06.09-.18.26a4.68,4.68,0,0,0-.48,1.11,4.35,4.35,0,0,0-.11,1.95c0,.1,0,.2.05.3s.06.19.08.29.06.2.1.3l.12.31a13.78,13.78,0,0,0,.66,1.24c.5.86,1.09,1.79,1.74,2.8s1.37,2.08,2.14,3.22c1.54,2.3,3.31,4.86,5.26,7.64h0a4.83,4.83,0,0,0,1.74,1.65,3,3,0,0,0,1.17.34q.31,0,.63,0h.64l5.28.09,11.43.26,20.92.41,0,0a10.56,10.56,0,0,0,.71-1.08,3.81,3.81,0,0,0,.29-.57,5.87,5.87,0,0,0,.16-.6c.17-.83.31-1.65.43-2.44.23-1.6.39-3.12.47-4.56a39.18,39.18,0,0,0-.2-7.46,24.5,24.5,0,0,0-1.05-4.68c-.1-.26-.18-.49-.25-.69l-.2-.49-.13-.3A.82.82,0,0,1,596.15,103.72Z"/><path class="cls-4" d="M570,107.8s0,.06.06.19.06.3.1.54c.07.47.15,1.16.2,2,.11,1.72.07,4.09,0,6.71s-.1,5-.15,6.7c0,.85,0,1.54-.06,2l0,.55v.14s0,0,0,0V126l0-2,.11-6.71c0-2.61.09-5,0-6.69,0-.86-.11-1.55-.17-2,0-.23-.06-.42-.08-.54l0-.14A.18.18,0,0,1,570,107.8Z"/><path class="cls-5" d="M570.24,96.94l1.89,9.9,20.15,1.48,3.1-4.36s-7.8-4.6-14.66-6S570.24,96.94,570.24,96.94Z"/><g class="cls-9"><path d="M554.4,119.81s9.41,4.1,11.13,4.49,29.28.6,29.28.6l.57-1.27-28.78-.2S555,119,554.4,119.81Z"/></g><path class="cls-4" d="M548.91,116.35l0,0-.14-.13a5.35,5.35,0,0,0-.61-.47,7.88,7.88,0,0,0-1.05-.59,10.47,10.47,0,0,0-1.49-.55,11.81,11.81,0,0,0-1.88-.37c-.34-.06-.7-.07-1.06-.11h-.56a5.42,5.42,0,0,0-.57,0,11.33,11.33,0,0,0-4.84,1.32,10.21,10.21,0,0,0-1.86,1.24l0,0,0-.05c-.9-1.28-1.73-2.5-2.46-3.61s-1.34-2.13-1.83-3-.89-1.55-1.15-2l-.3-.55-.08-.15a.1.1,0,0,1,0,0l0,0,.08.14.32.54,1.18,2c.5.85,1.12,1.86,1.85,3s1.56,2.32,2.46,3.61h-.07a9.57,9.57,0,0,1,1.89-1.26,11.43,11.43,0,0,1,4.87-1.33,5.61,5.61,0,0,1,.58,0c.19,0,.38,0,.56,0,.37,0,.73.05,1.07.1a13,13,0,0,1,1.89.4,9.87,9.87,0,0,1,1.5.56,9.22,9.22,0,0,1,1,.61,5.57,5.57,0,0,1,.59.49.88.88,0,0,1,.14.15S548.92,116.35,548.91,116.35Z"/><path class="cls-4" d="M524.83,121.57s0-.11-.07-.32-.1-.49-.17-.86c-.13-.73-.3-1.74-.46-2.86s-.28-2.14-.35-2.87c0-.37-.07-.67-.08-.88s0-.32,0-.32a1.43,1.43,0,0,1,.06.32c0,.22.06.51.11.87.1.73.23,1.75.39,2.87s.31,2.13.43,2.86c.05.35.09.64.13.87A1.25,1.25,0,0,1,524.83,121.57Z"/><path class="cls-4" d="M533.31,122.3s0,0-.11,0h-.31l-1.13,0c-1,0-2.29-.11-3.75-.26s-2.78-.35-3.73-.51l-1.12-.21-.3-.06-.1,0s0,0,.1,0l.31,0,1.13.17c1,.14,2.26.32,3.72.48s2.78.24,3.74.29l1.14.06.3,0Z"/><path class="cls-6" d="M626.06,117.48s-1.16-2.8-1.13-2.89c.18-.5.85-1.88.85-1.88a14.51,14.51,0,0,1,1.21.81,15,15,0,0,1,2.26,2,2.26,2.26,0,0,1,.55,1.5v2.34Z"/><path class="cls-4" d="M600.72,104.53a7.46,7.46,0,0,1-.54.75,8.39,8.39,0,0,1-.56.74,4.47,4.47,0,0,1,1.1-1.49Z"/><path class="cls-7" d="M524.94,104.59s8.83.75,8.73,1-8.73,3-8.73,3Z"/><path class="cls-4" d="M524.91,108.61a40,40,0,0,1,0-4,33.36,33.36,0,0,1,0,4Z"/><path class="cls-4" d="M619.65,119.26l0-.08c0-.05-.07-.13-.14-.23s-.31-.5-.57-.87a15.39,15.39,0,0,0-1.07-1.28,11.53,11.53,0,0,0-1.68-1.47,9,9,0,0,0-2.42-1.25,10.22,10.22,0,0,0-3.13-.5,13.63,13.63,0,0,0-3.57.4,11.07,11.07,0,0,0-1.84.62,8.68,8.68,0,0,0-1.77,1h0L590,114.25,577.47,113l-.36,0-.36,0-.71,0-1.38-.07-2.66-.09c-1.71-.06-3.31-.09-4.76-.11-2.92,0-5.28,0-6.91-.06h0c1.63,0,4,0,6.91,0,1.45,0,3,0,4.77.09l2.65.1,1.39.06.71,0,.36,0,.35,0L590,114.14l13.43,1.38h0a8.94,8.94,0,0,1,1.79-1,11.27,11.27,0,0,1,1.86-.62,13.34,13.34,0,0,1,3.59-.39,10.21,10.21,0,0,1,3.16.51,9.21,9.21,0,0,1,2.42,1.27,11.06,11.06,0,0,1,1.68,1.49,12.22,12.22,0,0,1,1.06,1.29c.26.38.45.67.57.88A2.77,2.77,0,0,1,619.65,119.26Z"/><path class="cls-4" d="M594.81,124.9h-.41l-1.19,0-4.36-.07-14.37-.28-7.92-.17h-.45c-.15,0-.3,0-.45,0a3.21,3.21,0,0,1-.84-.29l-1.56-.64-2.82-1.09c-1.73-.65-3.12-1.2-4.08-1.59l-1.1-.47-.28-.12-.09,0,.09,0,.29.11,1.11.45c1,.38,2.35.91,4.08,1.56.87.33,1.82.68,2.83,1.08l1.56.63a3.46,3.46,0,0,0,.82.28c.14,0,.29,0,.44,0h.46l7.91.16,14.38.31,4.35.11,1.19,0,.31,0Z"/><path class="cls-3" d="M592.48,103.89a6.84,6.84,0,0,0-.72,3.24,1.5,1.5,0,0,0,1.47,1.44l3.63,0a1.06,1.06,0,0,0,1-1.51c-.38-.79-.7-.64-.7-.64a8,8,0,0,0-2.76-3.24A1.4,1.4,0,0,0,592.48,103.89Z"/><path class="cls-4" d="M596.24,108.6a.78.78,0,0,0,.33-.17,1.4,1.4,0,0,0,.52-.74,3.13,3.13,0,0,0,.08-.91,1.06,1.06,0,0,0,0-.37,1.76,1.76,0,0,0,0,.37,4.39,4.39,0,0,1-.11.87,1.46,1.46,0,0,1-.46.71C596.35,108.51,596.23,108.58,596.24,108.6Z"/><path class="cls-6" d="M596.51,106a1.91,1.91,0,0,0-.2-.49,5,5,0,0,0-.75-1,4.45,4.45,0,0,0-1-.76,1.68,1.68,0,0,0-.47-.21,8.81,8.81,0,0,1,1.37,1.07A9.14,9.14,0,0,1,596.51,106Z"/><path class="cls-5" d="M568.51,96.29l0,.11.06.33c.06.29.14.71.23,1.23.17,1,.41,2.47.64,4.06s.4,3,.49,4.08c0,.26,0,.5,0,.71s0,.39,0,.53v.34c0,.08,0,.12,0,.12a.55.55,0,0,1,0-.12l0-.34c0-.14,0-.32,0-.53s0-.44-.07-.7c-.1-1-.29-2.49-.52-4.08s-.45-3-.61-4.06c-.08-.51-.14-.92-.19-1.23l0-.33C568.51,96.33,568.5,96.29,568.51,96.29Z"/><g class="cls-9"><path d="M524.94,108.5l4.37-2.68.12-.82a34,34,0,0,1,4.24.54C533.67,105.68,528.3,107.44,524.94,108.5Z"/></g><g class="cls-9"><path d="M624.93,114.59l2.33,2,2.54.42v2.34l-3.75-1.92C625.6,116.36,625.18,115.32,624.93,114.59Z"/></g><path class="cls-4" d="M624.91,114.59l-.06,0-.17-.07-.65-.29-2.37-1c-1-.44-2.2-1-3.55-1.52-.67-.26-1.37-.55-2.12-.77-.38-.1-.78-.16-1.17-.23l-1.22-.2c-3.29-.52-6.28-1-8.44-1.29l-2.55-.39-.7-.11-.18,0-.06,0h.06l.18,0,.7.09,2.56.36c2.17.31,5.15.74,8.44,1.26l1.22.2c.4.07.8.13,1.18.23.76.23,1.47.52,2.14.79,1.34.55,2.54,1.08,3.54,1.53l2.36,1.09.64.31.16.08Z"/><path class="cls-4" d="M533.67,124.32a8.26,8.26,0,1,0,8.37-8.43A8.42,8.42,0,0,0,533.67,124.32Z"/><path class="cls-4" d="M533.67,124.3v0a8.26,8.26,0,1,0,16.51.25v0Z"/><path class="cls-2" d="M536.13,124.36a5.8,5.8,0,1,0,5.88-5.92A5.91,5.91,0,0,0,536.13,124.36Z"/><path class="cls-3" d="M542,118.44a5.9,5.9,0,0,0-5.88,5.92l11.59.17A5.9,5.9,0,0,0,542,118.44Z"/><path class="cls-4" d="M538.39,124.39a3.54,3.54,0,1,0,3.59-3.61A3.61,3.61,0,0,0,538.39,124.39Z"/><path class="cls-4" d="M602,124.32a8.26,8.26,0,1,0,8.38-8.43A8.43,8.43,0,0,0,602,124.32Z"/><path class="cls-4" d="M602,124.3v0a8.26,8.26,0,1,0,16.51.25v0Z"/><path class="cls-2" d="M604.45,124.36a5.8,5.8,0,1,0,5.88-5.92A5.92,5.92,0,0,0,604.45,124.36Z"/><path class="cls-3" d="M610.33,118.44a5.9,5.9,0,0,0-5.88,5.92l11.59.17A5.9,5.9,0,0,0,610.33,118.44Z"/><path class="cls-4" d="M606.72,124.39a3.53,3.53,0,1,0,3.58-3.61A3.6,3.6,0,0,0,606.72,124.39Z"/><path class="cls-6" d="M579.07,105.18s1.52-.86,3.42-1.85,3.45-1.78,3.46-1.75-1.52.85-3.42,1.85S579.08,105.21,579.07,105.18Z"/><path class="cls-6" d="M576.94,105s1.44-.84,3.24-1.83,3.28-1.76,3.3-1.73-1.44.85-3.25,1.83S577,105,576.94,105Z"/><path class="cls-6" d="M555.65,104.6l.3-.14.83-.34L559.5,103l2.71-1.16.82-.35.31-.12a1.33,1.33,0,0,1-.29.16l-.81.38c-.68.32-1.64.75-2.7,1.19s-2,.83-2.73,1.1l-.84.31Z"/><path class="cls-6" d="M557.62,102.25a18,18,0,0,1,1.77-.88c1-.46,1.8-.81,1.81-.79a16.72,16.72,0,0,1-1.77.89A16.27,16.27,0,0,1,557.62,102.25Z"/><path class="cls-4" d="M629.81,119.4a1.3,1.3,0,0,1,0-.34c0-.24,0-.55,0-.92s0-.85,0-1.36a3.07,3.07,0,0,0-.76-1.41,7.21,7.21,0,0,0-1.17-1.12c-.38-.32-.74-.59-1.05-.81l-.73-.53a1.72,1.72,0,0,1-.26-.2l.29.17.74.49c.31.22.68.48,1.08.8a7.77,7.77,0,0,1,1.19,1.13,6.33,6.33,0,0,1,.49.7,1.74,1.74,0,0,1,.27.77c0,.53,0,1,0,1.37v.92C629.82,119.28,629.81,119.4,629.81,119.4Z"/><rect class="cls-3" x="531.15" y="58.34" width="89.22" height="9.03" rx="4.4"/><rect class="cls-3" x="527.82" y="153.85" width="96.62" height="9.03" rx="4.4"/><rect class="cls-3" x="527.82" y="170.92" width="96.62" height="9.03" rx="4.4"/><rect class="cls-3" x="527.82" y="188" width="96.62" height="9.03" rx="4.4"/><rect class="cls-7" x="531.43" y="251.56" width="93.01" height="30.5" rx="3.39"/><path class="cls-6" d="M560.35,268.56h-1.81v3.11h-3.32V260h5.36a6.7,6.7,0,0,1,2.76.52,4,4,0,0,1,2.45,3.81,3.91,3.91,0,0,1-2.3,3.7l2.53,3.68h-3.55Zm1.57-5.54a2.3,2.3,0,0,0-1.54-.45h-1.84V266h1.84a2.36,2.36,0,0,0,1.54-.44,1.81,1.81,0,0,0,0-2.54Z"/><path class="cls-6" d="M577,269.11v2.56h-9.41V260h9.19v2.56h-5.91v2h5.21V267h-5.21v2.14Z"/><path class="cls-6" d="M590,260v11.71h-2.73l-5.17-6.24v6.24h-3.25V260h2.73l5.17,6.24V260Z"/><path class="cls-6" d="M594.84,262.59h-3.59V260h10.49v2.63h-3.58v9.08h-3.32Z"/><path class="cls-7" d="M544.7,52A4.29,4.29,0,0,1,543,50.4a4.7,4.7,0,0,1,0-4.7,4.29,4.29,0,0,1,1.72-1.63,5.61,5.61,0,0,1,4.64-.15,4.2,4.2,0,0,1,1.6,1.22l-1.58,1.43a2.59,2.59,0,0,0-2.06-1,2.52,2.52,0,0,0-1.27.31,2.17,2.17,0,0,0-.87.88,2.92,2.92,0,0,0,0,2.62,2.17,2.17,0,0,0,.87.88,2.52,2.52,0,0,0,1.27.31,2.59,2.59,0,0,0,2.06-1L550.94,51a4.13,4.13,0,0,1-1.6,1.23A5.61,5.61,0,0,1,544.7,52Z"/><path class="cls-7" d="M557.76,50.73h-3.7l-.69,1.7h-2.53l3.87-8.76h2.44L561,52.43h-2.58ZM557,48.9l-1.13-2.8-1.13,2.8Z"/><path class="cls-7" d="M565.57,50.1h-1.36v2.33h-2.48V43.67h4a5.1,5.1,0,0,1,2.07.39,3,3,0,0,1,1.82,2.85,3,3,0,0,1-.44,1.66,3.07,3.07,0,0,1-1.27,1.11l1.89,2.75h-2.65ZM566.74,46a1.68,1.68,0,0,0-1.15-.34h-1.38v2.57h1.38a1.73,1.73,0,0,0,1.15-.33,1.19,1.19,0,0,0,.39-1A1.18,1.18,0,0,0,566.74,46Z"/><path class="cls-7" d="M581.18,52.43l-2-2.82a5.43,5.43,0,0,1-.71,0h-2.35v2.78h-.93V43.67h3.28a3.92,3.92,0,0,1,2.63.8,2.71,2.71,0,0,1,1,2.2,2.71,2.71,0,0,1-2,2.76l2.14,3Zm-.74-4.14a2.26,2.26,0,0,0,0-3.25,3,3,0,0,0-2-.57h-2.33v4.39h2.33A3,3,0,0,0,580.44,48.29Z"/><path class="cls-7" d="M590.45,51.63v.8h-6.2V43.67h6v.8h-5.09v3.12h4.54v.78h-4.54v3.26Z"/><path class="cls-7" d="M600,43.67v8.76h-.76l-5.64-7.11v7.11h-.93V43.67h.77L599,50.78V43.67Z"/><path class="cls-7" d="M604.51,44.47h-3.08v-.8h7.08v.8h-3.08v8h-.92Z"/></g><g id="Car"><rect class="cls-3" x="39.28" y="297.94" width="503.33" height="68.39"/><g class="cls-8"><rect x="39.28" y="297.94" width="503.33" height="68.39"/></g><path class="cls-3" d="M571.65,293.89c-14.3-8.85-51.41-22.73-61.71-23.92-6.24-.71-34-4.54-34-4.54l-9-.71S371.23,217.28,356,211.4c-23.57-9.12-73.38-17-126.21-10.52,0,0-70.58,6.46-86.27,11S52,240.09,52,240.09s-33.27,3.5-32.76,4.78c0,0,.46,2.16,3.23,4.79v21.27s-3.69,5-4.61,7.42-3,21.27-3,21.27-9.95,23.67-9.95,29.89,18,30.13,22.41,33.71S67.06,372,67.06,372L67,354.14c.93-27.26,22.15-49.05,48.2-49.05s47.28,21.79,48.21,49.05l.11,23.19H439.64l-.18-17.22c-.11-1.35-.17-2.72-.17-4.11,0-28.12,21.6-50.91,48.25-50.91s48.25,22.79,48.25,50.91c0,1.39-.07,2.76-.17,4.11h1v17.22h31.83s25.84-19.85,25.15-29.89V319.16A15.16,15.16,0,0,0,589.74,309,84,84,0,0,0,571.65,293.89Z"/><g class="cls-9"><path d="M593.57,327.36l-20.37-7.53-2.43,11.48-32.52-1.8s-14.32-28.35-43.6-30.84c-25.07-2.13-45,10.78-45,10.78L306.42,294.73s-72.66-2.87-100.69-2.51S153,313.69,153,313.69s-8.27-12.44-37.58-12.72-41.54,17.55-41.54,17.55a118.1,118.1,0,0,1-57.13-24.43l-1.43,1.19c-.3,2.55-.5,4.34-.5,4.34s-9.95,23.67-9.95,29.89,18,30.13,22.41,33.71S67.06,372,67.06,372L67,354.14c.93-27.26,22.15-49.05,48.2-49.05s47.28,21.79,48.21,49.05l.11,23.19H439.64l-.18-17.22c-.11-1.35-.17-2.72-.17-4.11,0-28.12,21.6-50.91,48.25-50.91s48.25,22.79,48.25,50.91c0,1.39-.07,2.76-.17,4.11h1v17.22h31.83s25.84-19.85,25.15-29.89V327.36Z"/></g><path class="cls-4" d="M102.24,241.64a3.5,3.5,0,0,0,1.51,6.25L128,251.24,265.93,267l168.15,9.67A7.64,7.64,0,0,0,441,273.3c1.43-2.22,2-5.32-1.56-8.83-7.06-7-38.28-25.2-45.61-28.78S335,200.13,258.27,204.5c-23.24.83-67.84,7.71-125.47,15.54a7.35,7.35,0,0,0-3.42,1.4Z"/><path class="cls-5" d="M130.91,248.67c.35-1.07,12.76-25.37,15.18-26.8S248.84,207.21,250.22,209s4.83,52.9,4.83,52.9Z"/><polygon class="cls-4" points="169.15 218.15 168.28 253.82 173.45 253.82 173.45 217.55 169.15 218.15"/><path class="cls-4" d="M410.28,244.92s.09.18.26.55l.71,1.61c.3.72.73,1.59,1.13,2.67s.87,2.33,1.41,3.75A130.46,130.46,0,0,1,419.67,279a213.41,213.41,0,0,1,1.23,40.67c-.45,7.85-1.28,16.17-2.56,24.88-.65,4.35-1.39,8.8-2.33,13.32a20.93,20.93,0,0,1-.89,3.39,25.94,25.94,0,0,1-1.57,3.17,69.6,69.6,0,0,1-3.88,5.95l-.08.1h-.13l-114-2.15-62.21-1.48c-9.89-.2-19.51-.41-28.79-.47-1.16,0-2.32,0-3.47,0s-2.29,0-3.46,0a17,17,0,0,1-6.57-1.92,23.29,23.29,0,0,1-5.47-4,28.08,28.08,0,0,1-4.23-5.19v0c-10.62-15.16-20.22-29.17-28.61-41.67-4.18-6.27-8.09-12.13-11.61-17.63s-6.73-10.55-9.44-15.26a65.08,65.08,0,0,1-3.56-6.83l-.67-1.67c-.22-.55-.34-1.12-.51-1.67a16.41,16.41,0,0,1-.44-1.63c-.1-.54-.19-1.07-.29-1.6a24.51,24.51,0,0,1,3.41-16.79,13.37,13.37,0,0,1,1.34-1.83l-.33.46c-.23.31-.55.78-.94,1.42a24.36,24.36,0,0,0-2.64,6.07,23.9,23.9,0,0,0-.61,10.63c.09.52.19,1.05.29,1.59s.3,1.06.44,1.61.3,1.1.52,1.64l.67,1.65a63.08,63.08,0,0,0,3.58,6.79c2.72,4.69,5.93,9.75,9.48,15.22s7.46,11.33,11.65,17.58c8.42,12.48,18,26.47,28.68,41.61h0a26,26,0,0,0,9.5,9,16.5,16.5,0,0,0,6.38,1.86c1.11.06,2.26.06,3.42,0s2.31,0,3.47,0c9.29.06,18.91.26,28.8.45l62.21,1.46,114,2.23-.21.1a68.44,68.44,0,0,0,3.86-5.89,25.41,25.41,0,0,0,1.54-3.09,22.33,22.33,0,0,0,.87-3.31c.94-4.5,1.69-8.95,2.35-13.29,1.29-8.69,2.13-17,2.6-24.83a214.59,214.59,0,0,0-1.11-40.6,132.79,132.79,0,0,0-5.73-25.51c-.52-1.41-1-2.66-1.37-3.75s-.81-2-1.1-2.68-.51-1.26-.67-1.64S410.28,244.92,410.28,244.92Z"/><path class="cls-4" d="M268,267.12a5.26,5.26,0,0,1,.29,1c.15.67.35,1.67.56,3,.4,2.58.83,6.34,1.11,11,.6,9.35.36,22.27.18,36.52s-.52,27.16-.77,36.5c-.15,4.63-.26,8.39-.34,11.06-.06,1.27-.1,2.27-.13,3,0,.31,0,.57-.05.78a.94.94,0,0,1,0,.27,1,1,0,0,1,0-.27c0-.21,0-.47,0-.78,0-.74,0-1.75,0-3,0-2.67.09-6.44.15-11.07.16-9.39.37-22.27.61-36.5s.48-27.16,0-36.48c-.22-4.66-.58-8.42-.92-11-.17-1.29-.33-2.29-.45-3-.05-.3-.1-.56-.13-.76A.8.8,0,0,1,268,267.12Z"/><path class="cls-5" d="M269.18,208l10.29,53.91L389.18,270l16.9-23.75s-42.51-25.06-79.86-32.63C288.33,205.92,269.18,208,269.18,208Z"/><g class="cls-9"><path d="M182.9,332.53s51.25,22.33,60.58,24.44S403,360.27,403,360.27l3.11-6.94-156.74-1.08S186.36,327.87,182.9,332.53Z"/></g><path class="cls-4" d="M153,313.69l-.27-.26c-.17-.17-.44-.42-.79-.74a32.16,32.16,0,0,0-3.3-2.55,46.63,46.63,0,0,0-5.71-3.21,58.25,58.25,0,0,0-8.12-3,68.77,68.77,0,0,0-10.25-2.05c-1.85-.3-3.8-.38-5.79-.55-1-.09-2-.05-3-.08a29.57,29.57,0,0,0-3.12,0,62.14,62.14,0,0,0-26.33,7.2,54.94,54.94,0,0,0-10.18,6.77l-.24.21-.18-.26c-4.89-7-9.44-13.61-13.38-19.69s-7.28-11.6-10-16.26-4.82-8.42-6.26-11l-1.64-3-.42-.78a1,1,0,0,1-.12-.27s.07.08.17.24l.46.76,1.72,2.94,6.41,10.93c2.76,4.62,6.12,10.13,10.09,16.17s8.53,12.64,13.43,19.63l-.43-.05A55.28,55.28,0,0,1,86,308a62.13,62.13,0,0,1,26.57-7.22c1.06-.1,2.11,0,3.14,0s2.07,0,3.07.09c2,.19,4,.28,5.82.59a67.66,67.66,0,0,1,10.3,2.13,58.36,58.36,0,0,1,8.14,3.09,45.58,45.58,0,0,1,5.71,3.32A29,29,0,0,1,152,312.6c.34.34.6.6.76.79S153,313.68,153,313.69Z"/><path class="cls-4" d="M21.86,342.1a10.43,10.43,0,0,1-.43-1.71c-.23-1.1-.55-2.7-.91-4.69-.72-4-1.63-9.48-2.5-15.58s-1.53-11.64-1.94-15.66c-.2-2-.35-3.64-.43-4.77a9.25,9.25,0,0,1-.07-1.75,10,10,0,0,1,.29,1.73c.17,1.23.37,2.82.62,4.74.52,4,1.25,9.53,2.11,15.62s1.71,11.61,2.33,15.6c.29,1.91.54,3.49.73,4.72A12.72,12.72,0,0,1,21.86,342.1Z"/><path class="cls-4" d="M68,346.1s-.2,0-.58,0H65.75c-1.46,0-3.58,0-6.2-.14-5.23-.18-12.46-.6-20.41-1.42S24,342.73,18.86,341.84c-2.59-.44-4.67-.83-6.11-1.13l-1.65-.35a2.78,2.78,0,0,1-.57-.16s.21,0,.59,0l1.67.24,6.13.94c5.17.78,12.34,1.76,20.28,2.58s15.15,1.31,20.37,1.6l6.19.32,1.68.11A2.45,2.45,0,0,1,68,346.1Z"/><path class="cls-6" d="M573.2,319.83s-6.35-15.22-6.17-15.73c1-2.73,4.62-10.21,4.62-10.21a71.4,71.4,0,0,1,6.6,4.39,84,84,0,0,1,12.28,11.08,12.41,12.41,0,0,1,3,8.17v12.75Z"/><path class="cls-4" d="M435.15,249.31a35.88,35.88,0,0,1-2.94,4.11c-1.66,2.23-2.91,4.11-3.06,4a16.22,16.22,0,0,1,2.59-4.39A15.78,15.78,0,0,1,435.15,249.31Z"/><path class="cls-7" d="M22.43,249.66s48.06,4.07,47.53,5.17-47.53,16.1-47.53,16.1Z"/><path class="cls-4" d="M22.28,271.54A102.61,102.61,0,0,1,22,260.65a102.73,102.73,0,0,1,.29-10.9,102.73,102.73,0,0,1,.29,10.9C22.58,266.66,22.45,271.54,22.28,271.54Z"/><path class="cls-4" d="M538.25,329.51s-.09-.14-.25-.42-.41-.71-.75-1.26c-.65-1.11-1.71-2.7-3.15-4.72a71.21,71.21,0,0,0-5.81-7,59.23,59.23,0,0,0-9.14-8A49.64,49.64,0,0,0,506,301.32a55.49,55.49,0,0,0-17.05-2.71,73.62,73.62,0,0,0-19.45,2.16,60.82,60.82,0,0,0-10,3.38,45.51,45.51,0,0,0-9.6,5.52l-.09.07h-.11l-73.15-7.5-68-7-2-.2-1.94-.11-3.85-.19-7.56-.34-14.46-.54c-9.33-.29-18-.48-26-.6-15.87-.23-28.72-.26-37.6-.31L205,292.87l-2.66,0-.91,0,.91,0,2.66,0,10.22-.06c8.88,0,21.73-.06,37.61.12,7.94.1,16.63.25,26,.53,4.66.14,9.49.31,14.46.5l7.56.34,3.86.18,2,.1,2,.2,68,7,73.16,7.55-.2.06a46.06,46.06,0,0,1,9.74-5.58,60.88,60.88,0,0,1,10.13-3.39,74.44,74.44,0,0,1,19.57-2.12,55.88,55.88,0,0,1,17.16,2.79,49.87,49.87,0,0,1,13.23,6.94,59.57,59.57,0,0,1,9.14,8.08,70,70,0,0,1,5.77,7.05c1.42,2,2.45,3.65,3.08,4.77S538.25,329.51,538.25,329.51Z"/><path class="cls-4" d="M403,360.27s-.19,0-.57,0h-1.68l-6.45-.08-23.74-.39-78.29-1.54-43.11-.92-2.47-.05a20.49,20.49,0,0,1-2.46-.13,18.06,18.06,0,0,1-4.58-1.56c-2.91-1.22-5.75-2.36-8.5-3.46-5.5-2.18-10.65-4.14-15.35-5.94-9.41-3.57-17-6.53-22.21-8.68-2.61-1.08-4.62-1.93-6-2.53l-1.54-.69-.52-.25a5.2,5.2,0,0,1,.54.19l1.57.63,6,2.43c5.23,2.08,12.84,5,22.27,8.5,4.71,1.77,9.87,3.71,15.38,5.87,2.76,1.09,5.6,2.22,8.52,3.44a17.66,17.66,0,0,0,4.46,1.51,23.37,23.37,0,0,0,2.4.12l2.47,0,43.11.87,78.29,1.72,23.73.59,6.45.19,1.68.06Z"/><path class="cls-3" d="M390.28,245.84c-2.06,4.39-4.33,10.89-3.91,17.63a8.23,8.23,0,0,0,8,7.86l19.76.15a5.9,5.9,0,0,0,5.92-5.09,5.42,5.42,0,0,0-.5-3.12c-2.05-4.34-3.76-3.52-3.76-3.52s-6-12.79-15.08-17.65A7.66,7.66,0,0,0,390.28,245.84Z"/><path class="cls-4" d="M410.74,271.45c0,.08.79-.14,1.8-.9a7.68,7.68,0,0,0,2.87-4,18.88,18.88,0,0,0,.4-4.95,5.91,5.91,0,0,0-.18-2,6.55,6.55,0,0,0-.31,2,27.94,27.94,0,0,1-.57,4.78,8.33,8.33,0,0,1-2.52,3.83C411.35,271,410.69,271.35,410.74,271.45Z"/><path class="cls-6" d="M412.23,257.05a8.28,8.28,0,0,0-1.1-2.65,25.13,25.13,0,0,0-4.08-5.56,24.36,24.36,0,0,0-5.39-4.18,8,8,0,0,0-2.56-1.12c-.11.2,3.81,2,7.47,5.81S412,257.17,412.23,257.05Z"/><path class="cls-5" d="M259.71,204.42a3.38,3.38,0,0,1,.17.62c.09.48.21,1.08.36,1.81.3,1.57.72,3.85,1.21,6.67,1,5.64,2.26,13.45,3.5,22.1s2.19,16.52,2.67,22.23c.14,1.43.22,2.72.28,3.86s.14,2.12.14,2.92,0,1.36,0,1.85a2.63,2.63,0,0,1,0,.64,2.76,2.76,0,0,1-.09-.64c0-.49-.07-1.1-.13-1.84s-.13-1.77-.23-2.9-.21-2.43-.37-3.85c-.59-5.69-1.6-13.53-2.84-22.18s-2.46-16.46-3.33-22.12c-.42-2.76-.77-5-1-6.7-.11-.74-.19-1.34-.26-1.82A2.87,2.87,0,0,1,259.71,204.42Z"/><g class="cls-9"><path d="M22.43,270.93,46.2,256.32l.69-4.44c9.22,1,20.42,1.85,23.07,3C70,255.58,40.74,265.18,22.43,270.93Z"/></g><g class="cls-9"><path d="M567,304.1l12.7,11.17,13.84,2.26v12.75L573.2,319.83C570.69,313.77,568.4,308.1,567,304.1Z"/></g><path class="cls-4" d="M566.9,304.1a1.25,1.25,0,0,1-.33-.12l-.92-.39L562.13,302l-12.94-5.74c-5.47-2.4-12-5.24-19.29-8.23-3.66-1.46-7.51-3-11.59-4.25-2-.53-4.2-.86-6.38-1.25l-6.63-1.08c-17.93-2.84-34.18-5.23-45.94-7l-13.93-2.13-3.78-.6-1-.17a1.15,1.15,0,0,1-.33-.08l.34,0,1,.11,3.79.49,14,1.93c11.78,1.68,28,4,46,6.85L512,282c2.17.39,4.33.72,6.43,1.27,4.14,1.24,8,2.83,11.63,4.3,7.31,3,13.81,5.91,19.27,8.36s9.84,4.49,12.87,5.92l3.47,1.66.9.44A1.84,1.84,0,0,1,566.9,304.1Z"/><ellipse class="cls-4" cx="114.93" cy="357.77" rx="44.97" ry="46.61"/><path class="cls-4" d="M70,357s0,.08,0,.12c-.35,25.74,19.48,46.91,44.32,47.28s45.25-20.19,45.6-45.93a.48.48,0,0,0,0-.12Z"/><path class="cls-2" d="M83.37,357.29c-.25,18.07,13.68,32.93,31.11,33.19s31.77-14.17,32-32.24-13.68-32.93-31.11-33.19S83.62,339.23,83.37,357.29Z"/><path class="cls-3" d="M115.39,325.05c-17.43-.26-31.77,14.18-32,32.24l63.13.95C146.75,340.17,132.82,325.31,115.39,325.05Z"/><path class="cls-4" d="M95.71,357.48c-.16,11,8.33,20.06,19,20.22s19.35-8.64,19.5-19.65-8.33-20.05-19-20.21S95.86,346.47,95.71,357.48Z"/><ellipse class="cls-4" cx="487.05" cy="357.77" rx="44.97" ry="46.61"/><path class="cls-4" d="M442.1,357s0,.08,0,.12c-.35,25.74,19.48,46.91,44.32,47.28s45.25-20.19,45.6-45.93a.48.48,0,0,0,0-.12Z"/><path class="cls-2" d="M455.49,357.29c-.25,18.07,13.68,32.93,31.11,33.19s31.77-14.17,32-32.24-13.68-32.93-31.11-33.19S455.74,339.23,455.49,357.29Z"/><path class="cls-3" d="M487.51,325.05c-17.43-.26-31.77,14.18-32,32.24l63.13.95C518.87,340.17,504.94,325.31,487.51,325.05Z"/><path class="cls-4" d="M467.83,357.48c-.16,11,8.33,20.06,18.95,20.22s19.35-8.64,19.5-19.65S498,338,487.33,337.84,468,346.47,467.83,357.48Z"/><path class="cls-6" d="M317.24,252.85c-.07-.15,8.26-4.66,18.6-10.08s18.8-9.7,18.87-9.55-8.25,4.67-18.6,10.09S317.31,253,317.24,252.85Z"/><path class="cls-6" d="M305.64,251.67c-.07-.15,7.84-4.61,17.67-10s17.86-9.58,17.94-9.43-7.84,4.61-17.67,10S305.72,251.82,305.64,251.67Z"/><path class="cls-6" d="M189.72,249.67a9,9,0,0,1,1.62-.75l4.5-1.86,14.82-6.14,14.77-6.31,4.48-1.91a10.82,10.82,0,0,1,1.67-.64,10.55,10.55,0,0,1-1.58.85c-1,.51-2.54,1.23-4.41,2.09-3.73,1.73-8.92,4.05-14.71,6.48s-11.06,4.52-14.9,6c-1.92.73-3.48,1.3-4.56,1.68A10.16,10.16,0,0,1,189.72,249.67Z"/><path class="cls-6" d="M200.43,236.89c-.07-.16,4.24-2.31,9.63-4.82a97.19,97.19,0,0,1,9.86-4.25c.07.15-4.24,2.3-9.62,4.81S200.5,237,200.43,236.89Z"/><path class="cls-4" d="M593.58,330.28a10.74,10.74,0,0,1-.11-1.84c0-1.29-.06-3-.1-5s0-4.65-.12-7.39-2.19-5.22-4.1-7.69a41.37,41.37,0,0,0-6.36-6.13c-2.12-1.71-4.09-3.18-5.75-4.4l-4-2.86a13.36,13.36,0,0,1-1.43-1.08,8.31,8.31,0,0,1,1.56.88c1,.62,2.37,1.53,4.07,2.7s3.69,2.62,5.84,4.32A39.69,39.69,0,0,1,589.6,308a34.08,34.08,0,0,1,2.71,3.81,9.59,9.59,0,0,1,1.47,4.21c.1,2.84,0,5.32,0,7.44s-.06,3.71-.09,5A10.74,10.74,0,0,1,593.58,330.28Z"/></g><g id="_Icon" data-name=" Icon"><path class="cls-7" d="M124.17,140.64A35.93,35.93,0,1,0,57.26,158.8h0l.1.13c1.38,2.32,3.11,4,4.85,6.42L83.06,193a6.48,6.48,0,0,0,10.35,0l20.52-27.18a78.46,78.46,0,0,0,5.22-6.91l.07-.1h0A35.76,35.76,0,0,0,124.17,140.64ZM88.23,156.29a15.82,15.82,0,1,1,15.82-15.82A15.81,15.81,0,0,1,88.23,156.29Z"/></g><g id="Speech_Bubble" data-name="Speech Bubble"><path class="cls-6" d="M432.42,134.15l6.36,1.13a19.31,19.31,0,1,0-3.58-5.91h0Z"/><path class="cls-4" d="M432.42,134.15l.2-.32.55-.92,2.08-3.51h-.11a.08.08,0,0,0,.1,0,.07.07,0,0,0,0-.09,19.41,19.41,0,0,1-1.07-9.27,20.06,20.06,0,0,1,.62-2.92,20.76,20.76,0,0,1,1.17-3,19.06,19.06,0,0,1,10.69-9.64,19.16,19.16,0,0,1,8.24-1.09,19.5,19.5,0,0,1,8.37,2.84A18.76,18.76,0,0,1,469.7,113a19.13,19.13,0,0,1-30.86,22.27l0,0-4.71-.79-1.23-.2-.43-.07.39.08,1.2.24,4.75.89,0,0a19.19,19.19,0,0,0,7.83,5.37A19.4,19.4,0,0,0,470,112.78l-.62-1c-.23-.33-.47-.65-.71-1a19.35,19.35,0,0,0-1.54-1.83c-.27-.29-.58-.54-.86-.82s-.57-.55-.89-.77a18.9,18.9,0,0,0-1.91-1.35,20,20,0,0,0-8.52-2.89,19.54,19.54,0,0,0-15,5.24,19.1,19.1,0,0,0-4.17,5.71,21.35,21.35,0,0,0-1.16,3,19.12,19.12,0,0,0-.61,3,19.38,19.38,0,0,0,1.16,9.36l.13-.07h0a.08.08,0,0,0-.1,0s0,0,0,0l-2,3.6-.52.92Z"/><polygon class="cls-7" points="453.76 130.38 444.31 124.06 446.52 120.77 452.85 125.01 460.74 114.58 463.9 116.97 453.76 130.38"/></g><g id="Character_2" data-name="Character 2"><path class="cls-4" d="M362.84,194.85a2.12,2.12,0,0,1,1-1.68c9-5.95,15.76-19.14,16.44-30.3,0-.63,0-1.28.06-1.93h0c.52-16,2.87-35.32,5-40.48,3.9-9.53,17.1-10.42,17.1-10.42,17.52-1.26,20.65,12.21,22.42,24.47,1.1,7.63,5.34,34.87,5.34,34.87L427,170.62a39.7,39.7,0,0,1-23.44,24.52c-3.23,1.21-6,1.7-7.25.65A44.06,44.06,0,0,1,377.84,207a23,23,0,0,1-8.74,1.16,6.93,6.93,0,0,1-5.07-2.36,4.38,4.38,0,0,1,3.77-7C367.13,196.64,362.76,197.27,362.84,194.85Z"/><path class="cls-10" d="M400,114.49l1.1-1,9.26,3.74c1.71.09,4.56,3.38,4.61,5.1L414.76,160c0,2.62.65,5-.93,7l-1.66,2.19a8.74,8.74,0,0,1-14.6-.92,3.91,3.91,0,0,1-.42-1c-.06-.34-.16-.57-.18-.86-.35-3.1-.73-5.28-.73-5.28s.08-5.33.08-5.29-7.26-.84-9.22-10.15c-1-4.63-.79-11-.52-17.28C387,119.72,393,114.48,400,114.49Z"/><path class="cls-4" d="M401.19,134.78a1.21,1.21,0,0,0,1.22,1.16,1.15,1.15,0,0,0,1.19-1.15,1.21,1.21,0,0,0-1.22-1.15A1.15,1.15,0,0,0,401.19,134.78Z"/><path class="cls-4" d="M389.12,134.78a1.21,1.21,0,0,0,1.23,1.16,1.15,1.15,0,0,0,1.18-1.15,1.2,1.2,0,0,0-1.22-1.15A1.15,1.15,0,0,0,389.12,134.78Z"/><path class="cls-4" d="M388,131.38c.16.15,1-.57,2.33-.63s2.28.54,2.41.37-.1-.35-.53-.63a3.25,3.25,0,0,0-1.94-.49,3.09,3.09,0,0,0-1.84.7C388,131,387.88,131.31,388,131.38Z"/><path class="cls-4" d="M401.11,131.51c.17.14,1-.67,2.26-.87s2.32.31,2.43.13-.13-.34-.59-.57a3.31,3.31,0,0,0-2-.3,3.21,3.21,0,0,0-1.77.89C401.12,131.15,401,131.45,401.11,131.51Z"/><path class="cls-4" d="M396.58,141a7.9,7.9,0,0,0-2.12-.28c-.33,0-.65-.07-.72-.29a1.63,1.63,0,0,1,.18-1l.85-2.57a44.18,44.18,0,0,0,1.87-6.7,42.66,42.66,0,0,0-2.41,6.53c-.28.91-.55,1.76-.81,2.59a1.9,1.9,0,0,0-.1,1.3.82.82,0,0,0,.56.46,2.44,2.44,0,0,0,.57.05A9.07,9.07,0,0,0,396.58,141Z"/><path class="cls-11" d="M396.33,155.81a23.93,23.93,0,0,0,12.4-4s-3,6.67-12.44,6.27Z"/><path class="cls-11" d="M397.29,144a2.32,2.32,0,0,1,2-1,2.14,2.14,0,0,1,1.51.71,1.36,1.36,0,0,1,.18,1.54,1.58,1.58,0,0,1-1.68.52,5,5,0,0,1-1.7-.91,1.23,1.23,0,0,1-.39-.36.41.41,0,0,1,0-.48"/><path class="cls-4" d="M400.44,141.65c-.21,0-.14,1.41-1.3,2.46s-2.65,1-2.66,1.18.35.26,1,.24a3.49,3.49,0,0,0,2.22-.9,3.08,3.08,0,0,0,1-2.06C400.71,142,400.54,141.64,400.44,141.65Z"/><path class="cls-4" d="M399.87,126.46c.18.33,1.43,0,3-.08s2.81.17,3-.17c.07-.16-.19-.46-.74-.72a5.06,5.06,0,0,0-2.28-.43,4.93,4.93,0,0,0-2.24.62C400,126,399.79,126.31,399.87,126.46Z"/><path class="cls-4" d="M388.15,125.81c.24.28,1.12-.07,2.19-.13s2,.09,2.19-.22c.08-.16-.08-.45-.49-.7a3,3,0,0,0-1.81-.4,3.06,3.06,0,0,0-1.72.68C388.15,125.36,388,125.67,388.15,125.81Z"/><path class="cls-4" d="M415.93,138.39s-6.64,2.06-10.39-14.32c-1.29-5.6-6.48-10.13-6.48-10.13l2.11-.63s13.08,3.68,13.3,3.85,3.3,6.77,3.3,6.77Z"/><path class="cls-10" d="M413.34,137.47c0-.7.69-2.39,1.38-2.53,1.83-.38,5.16-.4,5.43,4.28.36,6.4-6.14,5.45-6.16,5.26S413.46,139.89,413.34,137.47Z"/><path class="cls-11" d="M415.8,142s.12.07.31.15a1.17,1.17,0,0,0,.84,0,2.77,2.77,0,0,0,1.13-2.55,3.65,3.65,0,0,0-.4-1.58,1.27,1.27,0,0,0-.89-.81.57.57,0,0,0-.64.35c-.07.18,0,.31-.06.32s-.14-.1-.1-.37a.66.66,0,0,1,.23-.41.8.8,0,0,1,.6-.2,1.54,1.54,0,0,1,1.22.92,3.76,3.76,0,0,1,.49,1.77,2.9,2.9,0,0,1-1.47,2.85,1.21,1.21,0,0,1-1-.11C415.82,142.1,415.78,142,415.8,142Z"/><path class="cls-5" d="M420.17,162.56a1.49,1.49,0,0,0,.07-.31c0-.22.1-.53.16-.91.14-.82.33-2,.58-3.47l-.15,0c0,.24-.07.49-.11.76v0l-.14.28.16.06a62.16,62.16,0,0,0,2.06-10.3,63.17,63.17,0,0,0,.39-6.66,30.75,30.75,0,0,0-.64-7.31,11.28,11.28,0,0,0-1.16-2.9,15.79,15.79,0,0,0-1.77-2.47c-1.3-1.5-2.7-2.79-4-4.08l-6.87-6.76-4.65-4.54-1.28-1.22-.33-.31-.13-.1.11.12.31.33,1.24,1.27,4.58,4.6,6.83,6.8c1.27,1.29,2.67,2.59,4,4.08a12.57,12.57,0,0,1,2.87,5.26,29.87,29.87,0,0,1,.63,7.23,62.86,62.86,0,0,1-.36,6.63,64.79,64.79,0,0,1-2,10.29l.16.05.13-.28v0h0c0-.26.06-.52.09-.76l-.15,0c-.22,1.49-.39,2.66-.51,3.49l-.12.91Z"/><path class="cls-5" d="M424.44,131.53a1,1,0,0,0-.11-.27l-.38-.75c-.32-.66-.83-1.58-1.5-2.7s-1.53-2.41-2.53-3.81-2.21-2.87-3.53-4.36-2.69-2.81-4-4-2.48-2.14-3.52-2.92-1.91-1.39-2.52-1.79l-.71-.45c-.16-.1-.25-.15-.26-.14a1.29,1.29,0,0,0,.23.19l.67.5c.6.42,1.44,1,2.46,1.85s2.2,1.8,3.47,3,2.59,2.5,3.92,4,2.5,3,3.53,4.32,1.88,2.66,2.57,3.76,1.23,2,1.58,2.64c.17.29.31.53.43.72A1,1,0,0,0,424.44,131.53Z"/><path class="cls-11" d="M314.72,181.58l-6.3,4.29a2.07,2.07,0,0,0,3,.94c2.18-1,6.05-3.35,6.05-3.35l3,1.2,2.29-2.76-7.4-.48A1,1,0,0,0,314.72,181.58Z"/><path class="cls-10" d="M339.13,191.24l-15.69-9.38a.55.55,0,0,0-.25-.07h-1.71l-6.34.85a.52.52,0,0,0-.23.1L309,187.5a.47.47,0,0,0,.15.81,7.1,7.1,0,0,0,2.95.18,13.93,13.93,0,0,0,4.5-2.62.47.47,0,0,1,.37-.09l4.17.75a.46.46,0,0,1,.39.44l0,.51a.45.45,0,0,1-.27.44,7.23,7.23,0,0,1-4,.76,13.74,13.74,0,0,0-3-.31,11.63,11.63,0,0,0-3.24.66,1.09,1.09,0,0,0,.45,1.91c1.88.45,6.66,1.1,7.68,1.41,1.41.43,2,2.07,6,3.33,2,.64,5.26-.29,6.08-.6l3.58,3.61a.49.49,0,0,0,.66-.18l3.74-6.63A.47.47,0,0,0,339.13,191.24Z"/><rect class="cls-5" x="308.75" y="192.02" width="5.71" height="8.34" rx="1.76" transform="translate(572.65 455.89) rotate(-167.34)"/><path class="cls-4" d="M313.17,188.51s-.28-.12-.74,0a2.19,2.19,0,0,0-1.52,1,2.43,2.43,0,0,0-.28,1.79c.11.46.3.69.35.66s0-.29,0-.7a2.72,2.72,0,0,1,.35-1.49,2.38,2.38,0,0,1,1.2-.92C312.91,188.65,313.18,188.59,313.17,188.51Z"/><path class="cls-4" d="M312.53,192.78c0,.1.62.49,1.5.11a1.19,1.19,0,0,0,.66-.92c0-.29,0-.46-.09-.46s-.22.67-.79.94S312.54,192.64,312.53,192.78Z"/><path class="cls-4" d="M309.66,200s-.12-.07-.22-.26a1.18,1.18,0,0,1-.06-.9l.81-3.07c.26-1.06.5-2,.76-3.08a.88.88,0,0,1,.5-.71.63.63,0,0,1,.34,0s-.11-.12-.36-.07a1,1,0,0,0-.62.74c-.22.79-.5,1.87-.81,3.07s-.58,2.29-.75,3.09a1.19,1.19,0,0,0,.12,1C309.51,200,309.66,200.05,309.66,200Z"/><path class="cls-4" d="M310.46,194.5a12.29,12.29,0,0,0,2,.68,12.49,12.49,0,0,0,2.08.49,11.27,11.27,0,0,0-2-.68A10.3,10.3,0,0,0,310.46,194.5Z"/><path class="cls-4" d="M309.87,197a10.33,10.33,0,0,0,1.94.67,10.88,10.88,0,0,0,2,.48,9.55,9.55,0,0,0-1.94-.67A11.5,11.5,0,0,0,309.87,197Z"/><path class="cls-3" d="M309.14,199.9a1.19,1.19,0,0,1-.34-1.2c.17-.81,1.38-5.76,1.38-5.76l-.71-.21-1.25,5.51S308,199.63,309.14,199.9Z"/><path class="cls-4" d="M404.39,399v.91s-15.44,6.37-15.57,9.31l30.76-.45L419,398.57A17.62,17.62,0,0,1,404.39,399Z"/><path class="cls-5" d="M419.59,408.8l-.14-2.46L390,407.67s-1.36.62-1.19,1.58Z"/><path class="cls-6" d="M404.29,400c0,.15.76.21,1.51.68s1.14,1.09,1.28,1-.1-.92-1-1.48S404.25,399.89,404.29,400Z"/><path class="cls-6" d="M401.08,401.41c0,.15.62.39,1.14,1s.68,1.3.83,1.29.23-.86-.43-1.63S401.08,401.27,401.08,401.41Z"/><path class="cls-6" d="M399.31,405.3c.13,0,.33-.73-.07-1.54s-1.1-1.14-1.16-1,.38.56.69,1.24S399.16,405.29,399.31,405.3Z"/><path class="cls-4" d="M426.39,389.75l-13.1,3.66,3.27,7.43-3.39,18.8a2.13,2.13,0,0,0,1.47,2.44,2.18,2.18,0,0,0,2.21-.64c2.89-3.24,13.47-15.21,13.21-16.68l-.42-3.91a28.93,28.93,0,0,0-.87-2.91Z"/><path class="cls-5" d="M415,422.15l14.91-18.75.07.85a2.34,2.34,0,0,1-.6,2c-1.17,1.88-4.5,6.17-12.5,15.22a2.17,2.17,0,0,1-1.88.71Z"/><path class="cls-6" d="M419,412.9a6.29,6.29,0,0,0-2-1.4,6.45,6.45,0,0,0-2.42-.23s.22-.23.7-.34a3.45,3.45,0,0,1,1.89.15,3.25,3.25,0,0,1,1.5,1.11C419,412.58,419,412.88,419,412.9Z"/><path class="cls-6" d="M417.73,415.74a15.61,15.61,0,0,0-1.91-.7,16.12,16.12,0,0,0-2.05-.07,2.4,2.4,0,0,1,2.14-.37C417.16,414.84,417.84,415.67,417.73,415.74Z"/><path class="cls-6" d="M421.39,409.19a20.79,20.79,0,0,0-2.88-1.28,21.23,21.23,0,0,0-3.13-.41,4.78,4.78,0,0,1,3.26,0A4.65,4.65,0,0,1,421.39,409.19Z"/><path class="cls-5" d="M416.41,398.29a13.89,13.89,0,0,1,.15,2.52h0v0c-.16,1.09-.39,2.48-.66,4-.31,1.79-.62,3.4-.86,4.57a10.29,10.29,0,0,1-.46,1.87,8.63,8.63,0,0,1,.19-1.92c.17-1.18.44-2.8.75-4.59.26-1.51.52-2.89.74-4v0A13.89,13.89,0,0,1,416.41,398.29Z"/><path class="cls-4" d="M435.05,277.29c1-5,3.64-14,2.61-18.13-2.39-9.61-6.57-15.17-12.3-27.38h-4.25l-40.82-.71L377,238.48c-3.71,10-6.24,15.94-7.29,23.25-1.2,8.41.91,20.59,5.59,32.9,10.08,26.55,15.72,47.79,16.11,53.51s1,11.64,6.3,29.75c3.87,13.23,6.73,21.14,6.73,21.14,4,2.27,8.29,2.88,12.17.67l11.85-4.57s-3.63-31.19-7.87-39.47c-3.05-6-8-8.78-5.72-16.55S431.88,292.58,435.05,277.29Z"/><path class="cls-5" d="M387.27,252.1l.16.21.45.63,1.73,2.46,6.47,9.3,0,0v0c-.32,3.49-.44,7.53-.65,12s-.45,9.47-.7,14.8-.58,11-.89,17-.66,12.2-1.26,18.62a77.42,77.42,0,0,0-.72,15.62c.12,1.26.27,2.5.51,3.72a26.07,26.07,0,0,0,.88,3.56c.85,2.26,1.83,4.45,2.76,6.58,3.77,8.53,7.3,16.15,10.24,22.55l7,15.17,1.89,4.12.49,1.08a3.41,3.41,0,0,1,.15.37l-.19-.35c-.12-.26-.3-.61-.52-1.06-.45-1-1.11-2.33-2-4.1L406,379.38c-3-6.39-6.52-14-10.31-22.52-.94-2.14-1.92-4.31-2.78-6.62a25.64,25.64,0,0,1-.91-3.6c-.24-1.23-.39-2.49-.51-3.76-.47-5.08.09-10.36.71-15.7.59-6.39.9-12.64,1.26-18.6s.64-11.65.92-17,.53-10.29.76-14.79.38-8.56.72-12.05l0,.08-6.39-9.37c-.72-1.08-1.29-1.92-1.67-2.5-.19-.27-.33-.48-.43-.64S387.26,252.11,387.27,252.1Z"/><path class="cls-1" d="M392.71,164.91l3.47-6.21,7.49,8.42L415,158l1.93,2.32,4.14,73.26s-14.47,2.92-21.7,1.91a84.87,84.87,0,0,1-15.74-4.32V189.51Z"/><path class="cls-4" d="M415.19,167.88l-.1.14-.33.36c-.28.31-.71.76-1.27,1.32A53.19,53.19,0,0,1,408.6,174l-.07.06-.07-.07a55,55,0,0,1-4.48-5.61l-.44-.64h.18l-3.59,4.83a2.42,2.42,0,0,1-.5.51,1,1,0,0,1-.69.19,1.19,1.19,0,0,1-.61-.34c-.15-.16-.28-.33-.41-.49-.51-.63-1-1.23-1.41-1.77l-2-2.57c-.22-.29-.4-.53-.54-.7l-.18-.26a1.3,1.3,0,0,1,.21.23l.58.68,2.08,2.52,1.44,1.76c.26.31.52.68.9.75s.74-.28,1-.63l3.57-4.84.09-.13.09.13.44.64a58.82,58.82,0,0,0,4.45,5.61l-.13,0a61,61,0,0,0,4.93-4.2c.57-.55,1-1,1.31-1.29l.34-.34Z"/><g class="cls-12"><path d="M398.12,172.53s1.9,2.33,2.43,1.75,3.34-4.93,3.67-5.11,3.73,5.91,5.06,5.48,6.08-5.17,6.08-5.17l.09-1.87-6.91,6.29-4.91-6.25L399.5,173S398.63,173.71,398.12,172.53Z"/></g><path class="cls-4" d="M401.3,235.94a3.32,3.32,0,0,1,0-.69c0-.48,0-1.14.06-2,.07-1.75.17-4.21.3-7.24.25-6.1.6-14.54.92-23.86s.56-17.76.73-23.87c.08-3,.15-5.49.2-7.24,0-.82.06-1.48.08-2a5.33,5.33,0,0,1,.05-.68,4.11,4.11,0,0,1,0,.69c0,.48,0,1.14,0,2,0,1.76,0,4.22-.08,7.24-.09,6.12-.28,14.56-.6,23.89s-.71,17.75-1.05,23.86c-.17,3-.32,5.48-.42,7.22-.06.83-.11,1.48-.15,2A4.51,4.51,0,0,1,401.3,235.94Z"/><g class="cls-12"><path d="M388.14,206.37q-3.93,25.74-7.85,51.49l.61,5.59a1.94,1.94,0,0,0,2.76-.26,5.51,5.51,0,0,0,1.08-2.89C387.73,242.5,389.34,224.38,388.14,206.37Z"/></g><path class="cls-7" d="M377.09,165.1c-2.87.9-4.18,2.76-6.08,6.2l-14,27.27s-19.44-9.72-19.49-9.49l-7.2,10.86,22.8,14.11a11.73,11.73,0,0,0,15.75-3.21l7.18-10.17,6-36.55Z"/><path class="cls-7" d="M387.9,163,379,164.72l-3.09,33,1.13,22.84c0,.58.06.91.06.91l-15.3,34.24c3.41,6.1,12.66,9,19.19,10.51,0,0,6.6-46.8,7-57.12s7.43-49.48,7.43-49.48Z"/><path class="cls-4" d="M363.7,251.88l.06-.16.19-.44c.17-.41.42-1,.74-1.73l2.8-6.41c2.4-5.45,5.74-13,9.55-21.69v0c-.07-2.33-.16-4.75-.27-7.22-.26-5.59-.57-10.9-.77-15.74s-.33-9.2-.37-12.86,0-6.62,0-8.67c0-1,0-1.81.05-2.36,0-.26,0-.46,0-.61s0-.21,0-.21a1.66,1.66,0,0,1,0,.21v.61c0,.55,0,1.34,0,2.36,0,2.05,0,5,0,8.67s.2,8,.42,12.85.51,10.15.78,15.74c.12,2.47.21,4.9.28,7.23v0c-3.84,8.64-7.21,16.23-9.62,21.67-1.21,2.7-2.19,4.87-2.86,6.38l-.78,1.71-.2.44Z"/><path class="cls-4" d="M387.58,204s0,0,0-.11-.05-.19-.08-.33c-.07-.31-.17-.73-.3-1.27-.22-1.11-.55-2.71-.85-4.72s-.6-4.39-.84-7.06-.42-5.6-.56-8.68c-.05-1.15-.1-2.29-.15-3.39,0-.55-.05-1.1-.07-1.63l0-.81,0-.39v-.31a.45.45,0,0,0,0-.08l0,0s.1-.05.12,0,.05,0,.07.06l-.15,0,2.37-1.65,0,.17-2.58-1.21-.07,0,0-.08c.39-1.46.85-2.76,1.26-3.91s.79-2.15,1.11-3,.57-1.45.75-1.88l.21-.49a.48.48,0,0,1,.08-.17,1.56,1.56,0,0,1-.06.18l-.18.5-.71,1.9c-.3.82-.66,1.81-1.06,3s-.85,2.46-1.22,3.91l-.05-.11,2.58,1.2.16.07-.14.1-2.37,1.66-.15,0,.07-.06s0,0,0,0a.05.05,0,0,0,0,0h0V176c0,.26,0,.53,0,.8,0,.53.05,1.08.07,1.63.06,1.1.11,2.24.16,3.39.14,3.08.32,6,.55,8.68s.5,5.05.78,7.05.59,3.61.79,4.72c.11.55.19,1,.25,1.28,0,.14.05.25.06.34A.45.45,0,0,1,387.58,204Z"/><path class="cls-7" d="M432.13,225.8l5.64-57L421.89,163a39.52,39.52,0,0,1-5.8-3.88l-.59,7.64s-2.15,36.59,1.23,55,2.9,17.81,5.37,29.79c1.8,8.73,2.1,16.35,4.81,17.12s16.44-4.25,16.44-4.25Z"/><path class="cls-7" d="M437.77,168.78s4.81,2.36,5.53,9.08c.64,5.91,1.68,42.21,1.55,45.14s-2.66,11.2-7.19,11.49c-7.16.45-9.13-5.07-9.13-5.07l1.93-18.54Z"/><path class="cls-4" d="M419.57,202.05s0,0,0-.11l.05-.31.24-1.21c.2-1.06.49-2.58.76-4.48.56-3.79,1.05-9.06,1.32-14.9.07-1.38.13-2.72.19-4,0-.65.06-1.29.09-1.91,0-.32,0-.63,0-.93l0-.46v-.22a.31.31,0,0,0,0-.1v0h0l0,0,.06,0s.07,0,.06,0h0l-.15,0-2.36-1.66-.14-.1.15-.07,2.59-1.19,0,.1a30.45,30.45,0,0,1-.53-3.15c-.12-.93-.23-1.73-.36-2.38a13,13,0,0,0-.37-1.48l-.12-.38a.93.93,0,0,1,0-.13s0,0,.06.12.09.21.15.37a11.62,11.62,0,0,1,.41,1.48c.14.65.27,1.45.41,2.38s.27,2,.55,3.13l0,.06-.06,0L420,171.74l0-.16,2.37,1.65-.15,0,0,0s.05-.05.08,0l.08,0,0,0s0,0,0,0a.64.64,0,0,0,0,.07v.36c0,.15,0,.3,0,.46s0,.61-.05.93c0,.62-.05,1.26-.08,1.91-.06,1.31-.12,2.65-.19,4A139.76,139.76,0,0,1,420.78,196c-.29,1.9-.6,3.42-.82,4.47l-.28,1.21-.08.31Z"/><g class="cls-12"><path d="M396.22,231.88s-1.08,1.41,1.3,1.85,29.39-1.57,29.39-1.57l5.13,3-.67-2.15-4.28-4.57Z"/></g><path class="cls-4" d="M428.67,187l-34,1.73a1.56,1.56,0,0,0-1.48,1.48l-2.26,40.33a1.57,1.57,0,0,0,1.65,1.65l33-1.73a1.57,1.57,0,0,0,1.48-1.43l3.26-40.34A1.56,1.56,0,0,0,428.67,187Z"/><path class="cls-4" d="M435.81,178.13a1.68,1.68,0,0,1-.06.36c-.05.25-.11.6-.2,1l-.74,3.78c-.62,3.2-1.43,7.62-2.21,12.53s-1.37,9.36-1.76,12.59c-.19,1.6-.35,2.91-.46,3.83-.05.44-.1.78-.13,1a1.71,1.71,0,0,1-.06.36s0-.12,0-.36.05-.61.09-1c.07-.91.21-2.22.38-3.83.36-3.24.93-7.71,1.7-12.62s1.62-9.33,2.28-12.52c.33-1.59.61-2.88.81-3.77l.24-1A1.85,1.85,0,0,1,435.81,178.13Z"/><path class="cls-10" d="M429.37,213.38s2,.11,3.69,3l3.31,2.11s2.9,4.55,0,8.81-6.4.64-6.4.64-3.5,1.73-4.48,1.43a69.29,69.29,0,0,1-8.59-4.69c-.28-.24-2.42-2.7-2.42-2.7s-3-.63-3.3-1.31-.36-2.23,1.63-2.08c0,0-1.94-.59-2.17-1.57s0-2.25,3.45-1.76,10,2.32,10.8,2.14a.48.48,0,0,0-.08-.87c-.24-.11-8-3.13-9.26-3.48s-1.55-3.37,1.24-2.66,11.86,2.9,11.86,2.9Z"/><path class="cls-11" d="M424.25,224.91a11,11,0,0,1-1.44-.44c-.89-.29-2.11-.68-3.46-1.07s-2.6-.73-3.5-1a12,12,0,0,1-1.45-.4,1.21,1.21,0,0,1,.4,0c.26,0,.63.12,1.08.21.91.2,2.16.5,3.53.9s2.58.81,3.45,1.14l1,.4A1.36,1.36,0,0,1,424.25,224.91Z"/><path class="cls-11" d="M425.36,221.31a2.77,2.77,0,0,1-.51,0c-.32,0-.79-.1-1.37-.18-1.16-.17-2.76-.45-4.5-.83s-3.32-.77-4.45-1.09l-1.33-.39a2.11,2.11,0,0,1-.47-.18,2.06,2.06,0,0,1,.5.09l1.34.33c1.14.28,2.71.66,4.45,1s3.33.67,4.48.88l1.37.26A1.77,1.77,0,0,1,425.36,221.31Z"/><path class="cls-11" d="M434.79,220.53a1.67,1.67,0,0,1,0,.36,4.63,4.63,0,0,1-.13,1,8.45,8.45,0,0,1-1.23,3,8.75,8.75,0,0,1-2.22,2.3,6.92,6.92,0,0,1-.84.5,1,1,0,0,1-.33.13s.43-.27,1.07-.76a9.23,9.23,0,0,0,2.14-2.29,9.52,9.52,0,0,0,1.26-2.87C434.71,221,434.75,220.53,434.79,220.53Z"/><path class="cls-4" d="M435.88,228.42s.43-.47.94-1.33a7.63,7.63,0,0,0,.24-7.48,15.14,15.14,0,0,0-.86-1.39,1.42,1.42,0,0,1,.31.31,6.48,6.48,0,0,1,.68,1,7.39,7.39,0,0,1-.23,7.64,6,6,0,0,1-.75,1A1.25,1.25,0,0,1,435.88,228.42Z"/><path class="cls-4" d="M443.54,213.94s-.55-.37-1.51-.84a12.06,12.06,0,0,0-1.74-.66A11.56,11.56,0,0,0,438,212a12.13,12.13,0,0,0-2.28.06,11.75,11.75,0,0,0-1.83.4c-1,.32-1.6.65-1.62.61s.14-.1.4-.25a4.78,4.78,0,0,1,.5-.24c.19-.08.42-.19.67-.27a10.45,10.45,0,0,1,1.85-.45,10.76,10.76,0,0,1,4.61.34,10.28,10.28,0,0,1,1.76.73,5.88,5.88,0,0,1,.63.36,3.41,3.41,0,0,1,.45.31A2.56,2.56,0,0,1,443.54,213.94Z"/><g class="cls-12"><path d="M421.32,163.69s2.86,6.69,2.47,7.24a4.6,4.6,0,0,1-1.91,1s2.47,1.06,2.46,2c0,1.89-2.64,13.06-2.64,13.06l.65-13.64L420,171.66l2.58-1.2Z"/></g><path class="cls-5" d="M404.73,188.19c-.13.4.29-3.38.29-3.38l16-.69-.46,3.26Z"/></g><g id="Character_1" data-name="Character 1"><path class="cls-13" d="M312.09,205.71c-.7,1.44-1.26,2.7-1.34,2.9l-.78-5.54s-1.66-.12-1.89,2-.6,3.8-.6,3.8l-.86.16-2.11.18L298.7,206l1.78,4.53s3.25,1.15,3.52,1.2,9.31-1.41,9.31-1.41c.16,0,2-6.24,2-6.24S312.86,204.13,312.09,205.71Z"/><path class="cls-5" d="M196.6,295.43s2.45-22.47,7.71-25,12.56-4.14,14.55-.78a40.1,40.1,0,0,1,4.86,13.81,86,86,0,0,1,.34,13.6l-6-.67s.29-22.4-1.53-25.71-11.06-.65-12.07,3.34-3.23,21.89-3.23,21.89Z"/><path class="cls-5" d="M175.71,327.12c.28-9.27,1.17-29.71,1.57-38.7a4.55,4.55,0,0,1,4.58-4.36l55.13.33a4.56,4.56,0,0,1,4.54,4.43l1.08,38.07a4.57,4.57,0,0,1-4.55,4.7l-57.77.23A4.56,4.56,0,0,1,175.71,327.12Z"/><path class="cls-4" d="M175.71,327.12a5.23,5.23,0,0,0,.51,2.12,4.53,4.53,0,0,0,3.39,2.45,17.41,17.41,0,0,0,1.94,0l23.39-.17,16.16-.1,9,0,4.7,0h2.4a6.2,6.2,0,0,0,2.33-.28,4.32,4.32,0,0,0,2.81-3.49,20.56,20.56,0,0,0,0-2.48c0-.85-.05-1.7-.07-2.55q-.15-5.13-.3-10.46c-.21-7.1-.42-14.46-.63-22a7.92,7.92,0,0,0-.32-2.7,4.32,4.32,0,0,0-1.61-2.06,4.44,4.44,0,0,0-2.49-.75l-2.77,0-10.84-.06-20.49-.14-18.54-.13-2.16,0a4.64,4.64,0,0,0-2,.35,4.39,4.39,0,0,0-2.5,2.89,8.24,8.24,0,0,0-.2,1.94c0,.66,0,1.32-.08,2-.05,1.29-.11,2.56-.16,3.79-.43,9.85-.78,17.84-1,23.37-.13,2.75-.23,4.88-.3,6.35,0,.72-.07,1.27-.09,1.66s0,.56,0,.56,0-.19,0-.57,0-.93,0-1.65c.05-1.47.12-3.61.22-6.36.2-5.53.5-13.52.87-23.37,0-1.24.09-2.5.14-3.79,0-.65.05-1.3.08-2a8.93,8.93,0,0,1,.19-2,4.79,4.79,0,0,1,2.71-3.14,5,5,0,0,1,2.15-.38h2.16l18.54.08,20.5.11,10.84.07h2.76a4.86,4.86,0,0,1,2.75.83,4.87,4.87,0,0,1,2.1,3.72l0,1.42c.21,7.53.42,14.88.62,22,.1,3.55.19,7,.29,10.45,0,.86,0,1.71.07,2.55a21.86,21.86,0,0,1,0,2.56,4.76,4.76,0,0,1-3.1,3.84,6.41,6.41,0,0,1-2.47.3H234.8l-4.7,0-9,0-16.16,0-23.39,0a15.78,15.78,0,0,1-2-.06,4.64,4.64,0,0,1-3.44-2.56,4.24,4.24,0,0,1-.43-1.61A4,4,0,0,1,175.71,327.12Z"/><path class="cls-4" d="M237.7,298.36s0,.13,0,.4V300c0,1.11,0,2.7,0,4.76,0,4.17-.06,10.17-.11,17.58,0,.47,0,.94,0,1.41a2.69,2.69,0,0,1-.32,1.46,2.58,2.58,0,0,1-1.14,1.05,3.29,3.29,0,0,1-1.54.22h-6.3l-13.91,0-15.37,0-8.12,0h-5.21a5.16,5.16,0,0,1-1.09-.07,2.55,2.55,0,0,1-1.73-1.4,2.46,2.46,0,0,1-.23-1c0-.33,0-.61,0-.92l0-1.8c0-1.2.06-2.4.08-3.58q.07-3.56.15-7c.1-4.6.2-9.06.29-13.31v-.21l.21,0c15.84,1,29.42,1.23,39,1.27,4.81,0,8.62,0,11.24,0l3,0h.74l-.77,0-3,.09c-2.61.06-6.43.13-11.24.14-9.62,0-23.22-.19-39.07-1.13l.21-.18c-.09,4.25-.18,8.7-.27,13.31q-.08,3.45-.15,7c0,1.18-.05,2.38-.07,3.58,0,.6,0,1.2,0,1.8a3.59,3.59,0,0,0,.18,1.69,2.18,2.18,0,0,0,1.45,1.18,4.59,4.59,0,0,0,1,.05h5.21l8.13,0,15.36.06,13.91.06,6.31,0A2.81,2.81,0,0,0,236,326a2.16,2.16,0,0,0,1-.91,2.43,2.43,0,0,0,.29-1.31c0-.47,0-.94,0-1.4.11-7.38.2-13.35.26-17.5,0-2.07.07-3.68.09-4.79q0-.81,0-1.26C237.69,298.51,237.7,298.36,237.7,298.36Z"/><path class="cls-4" d="M221.86,322.82s.34,0,1-.14a4.82,4.82,0,0,0,2.39-1.32,5,5,0,0,0,1.34-4c0-1.74,0-3.71,0-5.88,0-1.09,0-2.23,0-3.42a4.84,4.84,0,0,0-1-3.37,4.59,4.59,0,0,0-3.27-1.74c-1.34,0-2.76,0-4.2,0l-18.72-.15a4.57,4.57,0,0,0-3.94,2.18,4.47,4.47,0,0,0-.65,2.19c0,.79,0,1.58,0,2.36,0,1.56,0,3.1,0,4.61l0,2.24a19,19,0,0,0,0,2.15,4.54,4.54,0,0,0,2.14,3.27,4.63,4.63,0,0,0,1.81.64c.63.06,1.3,0,1.94.05l7.12.09,10.31.16,2.8.06.73,0,.25,0h-.25l-.73,0h-2.81l-10.31,0-7.12,0c-.64,0-1.27,0-2,0a4.89,4.89,0,0,1-2-.68,5,5,0,0,1-2.33-3.53,18.15,18.15,0,0,1,0-2.21c0-.74,0-1.48,0-2.23,0-1.51,0-3.05,0-4.62q0-1.17,0-2.37a4.93,4.93,0,0,1,.71-2.38,5,5,0,0,1,4.29-2.39l18.73.19c1.44,0,2.83,0,4.21.06a4.92,4.92,0,0,1,3.52,1.89,5.19,5.19,0,0,1,1,3.59c0,1.18,0,2.32,0,3.41,0,2.18-.05,4.14-.08,5.88,0,.43,0,.85-.05,1.26a4.65,4.65,0,0,1-.29,1.14,4.77,4.77,0,0,1-3.6,3A3.64,3.64,0,0,1,221.86,322.82Z"/><g class="cls-12"><path d="M184.33,326.11a88.08,88.08,0,0,0,50.48.12Z"/></g><rect class="cls-3" x="207.24" y="304.92" width="10.2" height="3.69" rx="1.6" transform="translate(2.8 -1.92) rotate(0.52)"/><path class="cls-10" d="M215.29,261.11a15.58,15.58,0,0,1,2.51,2.8,43.87,43.87,0,0,1,1.8,6.1s-.92.83-2.56-1.79a24.15,24.15,0,0,1-2.13-3.93Z"/><path class="cls-10" d="M207.18,251.27l2.18,3.85,6,6.1,2.27,9a4,4,0,0,1-.31,2.85,1.39,1.39,0,0,1-.61.67c-.67.28-2.58-.69-2.58-.69s-1.39,1.73-2.88.71c0,0-2.14,1.1-3.33,0,0,0-1.36,1.08-2.37.41s-3.91-4.9-3.91-4.9l-3.88-13.93Z"/><path class="cls-14" d="M291.79,214.12l13.91,1.36s11.55-4.24,12.86-4.79a1.08,1.08,0,0,0,.62-.62,1.32,1.32,0,0,0-1.48-1.68l-12.94,1.88a2.69,2.69,0,0,1-2.14-.68l-4.49-4s2.47-1.58,4.09-2.86a2.48,2.48,0,0,0,.94-2.87c-1.69-.1-11.2,4.39-11.2,4.39l-4,2Z"/><path class="cls-4" d="M243.83,106.31a4.05,4.05,0,0,0,1.54-7.92,4.22,4.22,0,0,0-3.84-7,5.05,5.05,0,0,0-7.71-4,5.68,5.68,0,0,0-7,0,4,4,0,0,0-3.41,6.93"/><path class="cls-14" d="M244.43,106.87a17.22,17.22,0,0,0-17.5-15.46l-.89,0c-9.59.77-14.3,9.35-13.27,18.92l.86,34.27h0l16.51,17.83,7-11.39L237,139.69s9.21-1.64,9.12-10.88C246.11,124.35,245.28,115.17,244.43,106.87Z"/><path class="cls-13" d="M237.11,139.67a22.44,22.44,0,0,1-12.18-3.28s2.85,6.76,12,5.73Z"/><path class="cls-4" d="M242.19,115.32a1.32,1.32,0,0,1-1.24,1.36,1.26,1.26,0,0,1-1.39-1.16,1.32,1.32,0,0,1,1.24-1.36A1.27,1.27,0,0,1,242.19,115.32Z"/><path class="cls-4" d="M242.54,111.43c-.16.18-1.17-.54-2.59-.51s-2.45.77-2.6.6.08-.39.53-.73a3.53,3.53,0,0,1,2.07-.69,3.37,3.37,0,0,1,2.07.62C242.47,111,242.62,111.35,242.54,111.43Z"/><path class="cls-4" d="M229.27,115.86a1.32,1.32,0,0,1-1.25,1.36,1.25,1.25,0,0,1-1.38-1.16,1.32,1.32,0,0,1,1.24-1.36A1.27,1.27,0,0,1,229.27,115.86Z"/><path class="cls-4" d="M228.6,112c-.16.18-1.18-.54-2.6-.5s-2.44.76-2.6.59.08-.39.53-.73a3.63,3.63,0,0,1,2.08-.69,3.56,3.56,0,0,1,2.07.62C228.52,111.61,228.67,111.92,228.6,112Z"/><path class="cls-4" d="M234,122.41a9.79,9.79,0,0,1,2.3-.47c.36,0,.7-.12.76-.37a1.83,1.83,0,0,0-.27-1.07c-.36-.87-.73-1.78-1.13-2.73-1.57-3.9-2.72-7.11-2.56-7.17s1.56,3,3.13,6.94c.38,1,.75,1.88,1.09,2.76a2.1,2.1,0,0,1,.22,1.42.9.9,0,0,1-.59.54,3.08,3.08,0,0,1-.61.1A9.08,9.08,0,0,1,234,122.41Z"/><path class="cls-4" d="M228.92,107.15c-.18.37-1.4,0-2.9,0s-2.75.26-2.9-.11c-.06-.18.2-.51.73-.81a4.49,4.49,0,0,1,2.24-.52,4.34,4.34,0,0,1,2.18.62C228.77,106.64,229,107,228.92,107.15Z"/><path class="cls-4" d="M242.61,106.4c-.3.33-1.47,0-2.88,0s-2.6.27-2.88-.06c-.13-.16.06-.49.57-.81a4.68,4.68,0,0,1,2.33-.58,4.56,4.56,0,0,1,2.31.6C242.56,105.91,242.74,106.24,242.61,106.4Z"/><path class="cls-14" d="M214.45,119.31a2.51,2.51,0,0,0-2.76-2.36c-1.72.2-3.62,1.22-3.43,4.78.34,6.31,6.61,4.67,6.61,4.49S214.61,122,214.45,119.31Z"/><path class="cls-13" d="M213.37,123.92s-.11.08-.29.17a1,1,0,0,1-.82.06,2.7,2.7,0,0,1-1.39-2.37,3.75,3.75,0,0,1,.22-1.59,1.28,1.28,0,0,1,.79-.89.57.57,0,0,1,.66.27c.1.17.06.3.1.31s.13-.11.06-.37a.63.63,0,0,0-.27-.38.79.79,0,0,0-.61-.13,1.55,1.55,0,0,0-1.1,1,3.8,3.8,0,0,0-.29,1.78,2.88,2.88,0,0,0,1.75,2.64,1.23,1.23,0,0,0,1-.22C213.37,124.07,213.39,123.93,213.37,123.92Z"/><path class="cls-4" d="M238.9,93.85a2.38,2.38,0,0,0-.23-.45,4.06,4.06,0,0,0-3.18-1.72,16,16,0,0,0-2.24-.89,5.5,5.5,0,0,0-9.34-.19c-.26,0-.52.09-.77.15a5.62,5.62,0,0,0-8.49,2.59,4.08,4.08,0,0,0-4.47,6,3.88,3.88,0,0,0-2.06,3.13,2.26,2.26,0,0,0,2.34,2.25,82.22,82.22,0,0,0,.47,9.72c.16,2.21,3,3.46,3.22,5,1.15,7.64,3.57,3.35,4.19-12.53.15-.12.31-.26.47-.41.33-.31.4-.69.68-1s1-.3,1.51-.26a4,4,0,0,0,4.12-3,1.69,1.69,0,0,0,2.27.17,9.15,9.15,0,0,0,1.68-1.88,2.6,2.6,0,0,1,2.15-1.13,6,6,0,0,0,1.38.27c.82-.09,1.21-1.07,1.32-1.89a3.88,3.88,0,0,1,.59-2,5,5,0,0,1,1.6-.49l.94.12a2.13,2.13,0,0,0,.44,0,5.24,5.24,0,0,1,.58.22c2.82,1.29,5.38,7,5.38,7C243.57,99,241.51,96,238.9,93.85Z"/><path class="cls-5" d="M209.37,99.72a.34.34,0,0,1,.06-.09,2.06,2.06,0,0,1,.19-.25,3.54,3.54,0,0,1,1-.74,4,4,0,0,1,1.86-.44,3.73,3.73,0,0,1,2.37.83l-.17,0a5,5,0,0,1,2.54-3.21,6.09,6.09,0,0,1,2.25-.74,7.54,7.54,0,0,1,2.5.12,12.42,12.42,0,0,1,4.27,1.9l-.18.06a5.59,5.59,0,0,1,2.78-3A5.41,5.41,0,0,1,232,93.7a5.26,5.26,0,0,1,2,.76,3.55,3.55,0,0,1,.46.33l.15.14s-.22-.16-.65-.4a5.76,5.76,0,0,0-2-.68,5.31,5.31,0,0,0-3.12.5,5.46,5.46,0,0,0-2.64,2.94l-.06.15-.13-.09a12.69,12.69,0,0,0-4.19-1.85,7.86,7.86,0,0,0-2.41-.12,6.23,6.23,0,0,0-2.16.7,4.8,4.8,0,0,0-2.46,3l0,.17-.13-.12a3.57,3.57,0,0,0-2.23-.81,3.81,3.81,0,0,0-1.8.38A4.43,4.43,0,0,0,209.37,99.72Z"/><path class="cls-5" d="M234.57,95.35s0,.09-.11.25a5.18,5.18,0,0,0-.22.73c-.08.33-.15.74-.24,1.21a3.86,3.86,0,0,1-.59,1.57,1.26,1.26,0,0,1-.88.49,4.82,4.82,0,0,1-1.07,0,2.05,2.05,0,0,0-1.07.1,3,3,0,0,0-.91.73c-.27.31-.52.65-.8,1a4.4,4.4,0,0,1-.92,1,3,3,0,0,1-1.38.49,2.45,2.45,0,0,1-.76,0,1.12,1.12,0,0,1-.69-.45l.23,0a3.83,3.83,0,0,1-.39,1.07,3.64,3.64,0,0,1-.75.91,4.37,4.37,0,0,1-2.2,1,5.65,5.65,0,0,1-1,.06,2,2,0,0,0-.91,0,1.24,1.24,0,0,0-.67.55,6.25,6.25,0,0,1-.63.72,5,5,0,0,1-3.22,1.6,4.57,4.57,0,0,1-3-1.21,4.76,4.76,0,0,1-1.43-2.37l.11.06a2.45,2.45,0,0,1-2.06-.45,2.34,2.34,0,0,1-.86-1.34,2.27,2.27,0,0,1,0-1,1.64,1.64,0,0,1,.07-.25s0-.08,0-.08a2.64,2.64,0,0,0,0,1.31,2.22,2.22,0,0,0,.84,1.26,2.39,2.39,0,0,0,1.94.39l.08,0,0,.08a4.58,4.58,0,0,0,1.4,2.26,4.37,4.37,0,0,0,2.85,1.13,4.77,4.77,0,0,0,3-1.53,5.69,5.69,0,0,0,.6-.7,1.42,1.42,0,0,1,1.32-.72l.49,0a5.06,5.06,0,0,0,.95-.06,4.11,4.11,0,0,0,2.07-.91,3.44,3.44,0,0,0,.69-.84,3.81,3.81,0,0,0,.38-1l.06-.29.17.25a1.28,1.28,0,0,0,1.21.37,2.73,2.73,0,0,0,1.26-.45,3.89,3.89,0,0,0,.88-1c.28-.35.54-.69.82-1a3.08,3.08,0,0,1,1-.77,2.26,2.26,0,0,1,1.17-.1,4.62,4.62,0,0,0,1,.06,1.12,1.12,0,0,0,.78-.42,3.93,3.93,0,0,0,.59-1.49c.1-.47.19-.88.28-1.21a5.62,5.62,0,0,1,.26-.73A1.33,1.33,0,0,1,234.57,95.35Z"/><path class="cls-13" d="M229.6,125a3.47,3.47,0,0,0,1.41,4.23,2.25,2.25,0,0,0,1.74.19,2.3,2.3,0,0,0,1.62-1.3,4.56,4.56,0,0,0,.39-2.11C233.32,125.67,231.05,125.32,229.6,125Z"/><path class="cls-4" d="M234.15,128.54a1.2,1.2,0,0,1-.37.38,2.71,2.71,0,0,1-1.36.5,2.78,2.78,0,0,1-2-.64,3.24,3.24,0,0,1-1.19-2.34,4,4,0,0,1,.15-1.39l0-.11.11,0c1.49.29,2.78.55,3.71.75a10.65,10.65,0,0,1,1.47.36,7.83,7.83,0,0,1-1.5-.2c-.94-.15-2.24-.38-3.73-.66l.15-.09a4,4,0,0,0-.13,1.3,3.06,3.06,0,0,0,1.08,2.17,2.68,2.68,0,0,0,1.88.65,2.81,2.81,0,0,0,1.31-.41C234,128.66,234.13,128.52,234.15,128.54Z"/><path class="cls-4" d="M226.14,379.23l-.9,20.58s20.62,7.83,20.82,11.65l-40-.31.09-32.13Z"/><path class="cls-5" d="M206.09,411.15l.14-3.24,38.27,1.51s1.78.79,1.56,2Z"/><path class="cls-4" d="M225.89,399.61c0,.2-1,.28-1.95.9s-1.48,1.43-1.66,1.36.12-1.21,1.3-1.94S225.93,399.43,225.89,399.61Z"/><path class="cls-4" d="M230.07,401.38c0,.19-.81.51-1.48,1.33s-.86,1.7-1.06,1.69-.31-1.12.54-2.12S230.07,401.19,230.07,401.38Z"/><path class="cls-4" d="M232.41,406.41c-.18,0-.44-.93.07-2s1.42-1.48,1.51-1.32-.49.73-.9,1.61S232.61,406.4,232.41,406.41Z"/><path class="cls-4" d="M225.57,394.9c-.08.18-1-.1-2.08,0s-2,.4-2.06.23.73-.85,2-.91S225.67,394.75,225.57,394.9Z"/><path class="cls-4" d="M226.09,394.67a33.74,33.74,0,0,1,0,4.95l-.16-.24c2.34.88,5.44,2.08,8.74,3.64a46.61,46.61,0,0,1,8.86,5.1,9.55,9.55,0,0,1,2.19,2.23c.41.64.36,1.13.29,1.11a2.75,2.75,0,0,0-.51-1,11.1,11.1,0,0,0-2.26-2,59.21,59.21,0,0,0-8.85-4.87c-3.28-1.54-6.35-2.79-8.64-3.77l-.17-.08v-.17A32.61,32.61,0,0,1,226.09,394.67Z"/><path class="cls-4" d="M200.29,235.7l-4,23.43,9.78,55s-.77,27.72-2.2,43.49c-1.25,13.69.78,37.54.78,37.54h21.82l7.81-79.54,4.84-49.6,8.79-29.39Z"/><path class="cls-4" d="M239,375.66l-5.72,19.79s18.21,12.46,17.51,16.22L212,402l7.63-31.21Z"/><path class="cls-5" d="M212,402l.89-3.12,36.85,10.47s1.53,1.18,1,2.35Z"/><path class="cls-5" d="M233.93,395.41c-.05.19-1,0-2.1.41s-1.78,1.05-1.94.93.4-1.14,1.72-1.57S234,395.25,233.93,395.41Z"/><path class="cls-5" d="M237.58,398.11c0,.19-.9.31-1.75.95s-1.24,1.44-1.43,1.39,0-1.16,1-1.94S237.62,397.93,237.58,398.11Z"/><path class="cls-5" d="M238.67,403.56c-.18,0-.21-1,.54-1.93s1.73-1.11,1.77-.93-.64.59-1.24,1.35S238.86,403.58,238.67,403.56Z"/><path class="cls-4" d="M234.73,390.75c-.12.16-.92-.32-2-.52s-2-.06-2.07-.25.92-.66,2.2-.41S234.86,390.63,234.73,390.75Z"/><path class="cls-4" d="M256.36,237l1,10.15-.4,71a26.58,26.58,0,0,1-1.19,7.67L238.88,380l-4.18,14.35-22.29-4.2L229.59,237Z"/><path class="cls-5" d="M255.68,326.05s0,.11-.08.33-.16.55-.28,1l-1.13,3.76c-1,3.29-2.45,8.08-4.27,14.11-3.7,12.09-8.92,29.16-15,49.16l0,.17-.18,0-22.29-4-.2,0,0-.2c1.14-5.69,2.32-11.64,3.54-17.71,3.6-18,7-34.93,10-49.75v.07c-3.69-22-6.64-39.5-8.33-49.56v0L213.67,267c-.41-.73-.73-1.28-.95-1.66l-.31-.57s.13.18.35.55l1,1.64,3.79,6.38v0h0c1.73,10.05,4.75,27.57,8.53,49.53v.06c-2.95,14.82-6.33,31.77-9.91,49.75-1.21,6.07-2.41,12-3.54,17.72l-.17-.23,22.28,4-.22.13,15.17-49.12,4.39-14.08c.51-1.63.91-2.88,1.18-3.75l.32-1Z"/><path class="cls-7" d="M185,189.83s-3.08,18.22-1.23,25.16,16.85,24.47,16.85,24.47l20.47-12.7L207.59,193.6Z"/><path class="cls-7" d="M196.58,152.83s14.11.43,14.25,13.84S208.32,198,208.32,198l-24.26-1.71s1.49-25.14,3.44-32.55S196.58,152.83,196.58,152.83Z"/><path class="cls-6" d="M213.38,139.74l.07-2.52s21,5.88,24.12,7.84.74,5.13.74,5.13Z"/><path class="cls-7" d="M254.33,208.31l-7.4-54.87-7.44-4.62h0c-1.37-2.2-3.15-3-5.94-4l-20.08-6.61-1.29,5-17.89,10.81,6.27,59.41-5.71,49.84H205.5l3.94-11.62,1.16,11.62,48.77-1.43Z"/><path class="cls-7" d="M243.84,151.43s7.35,2.81,9.68,13c.78,3.4,7.29,36.32,7.29,36.32l30.11,2.68L293.44,219l-33,2.16c-9.13,1.07-18-1.69-20.41-14.8-.06-.32-.16-.63-.23-1-2.44-11.55-5.71-27.69-6.14-33.21C233,164.18,234.83,153.55,243.84,151.43Z"/><path class="cls-4" d="M228.9,216.89a3.31,3.31,0,0,1-1,.12c-.63.05-1.54.1-2.66.15-2.25.11-5.35.21-8.79.27s-6.54,0-8.79,0l-2.66,0a4.54,4.54,0,0,1-1-.07,3.46,3.46,0,0,1,1-.11c.63,0,1.54-.08,2.67-.11,2.25-.07,5.35-.11,8.78-.17l8.79-.13h2.67A4.34,4.34,0,0,1,228.9,216.89Z"/><path class="cls-4" d="M192.75,173.22s0,.06.06.2.08.36.13.59c.12.57.27,1.33.47,2.3.39,2,1,4.92,1.64,8.46,1.34,7.19,3.18,17,5.22,27.95.12.7.25,1.39.37,2v.07c-1.23,10.55-2.34,20-3.15,26.87-.41,3.38-.75,6.12-1,8.07-.13.91-.22,1.64-.3,2.18a4.32,4.32,0,0,1-.13.76,4.44,4.44,0,0,1,0-.77q.07-.81.21-2.19c.2-2,.49-4.7.85-8.09.77-6.87,1.83-16.33,3-26.88v.07l-.38-2c-2-10.91-3.77-20.78-5.08-28-.62-3.55-1.13-6.44-1.49-8.49-.16-1-.29-1.74-.38-2.31,0-.24-.06-.44-.09-.6S192.74,173.22,192.75,173.22Z"/><path class="cls-4" d="M239.82,149a4.93,4.93,0,0,1-1.09-.23L235.8,148c-2.47-.63-5.91-1.44-9.73-2.22s-7.3-1.4-9.82-1.82l-3-.5a5.7,5.7,0,0,1-1.09-.23,4.67,4.67,0,0,1,1.11.05c.72.07,1.74.18,3,.35,2.54.34,6,.9,9.86,1.69s7.26,1.64,9.72,2.36c1.23.36,2.22.67,2.9.91A5.56,5.56,0,0,1,239.82,149Z"/><path class="cls-4" d="M247.34,154.42a24.14,24.14,0,0,0-3.1.09,11.38,11.38,0,0,0-6.5,3.27,12.65,12.65,0,0,0-3.31,6.52,29.75,29.75,0,0,0-.27,3.1,2.74,2.74,0,0,1-.14-.84,10.61,10.61,0,0,1,.08-2.31,12.21,12.21,0,0,1,3.3-6.8,11.13,11.13,0,0,1,6.8-3.27,9.41,9.41,0,0,1,2.32,0A2.25,2.25,0,0,1,247.34,154.42Z"/><path class="cls-4" d="M191,159.27a14.13,14.13,0,0,1,1.1,3.42,14.12,14.12,0,0,1,.64,3.54,13.62,13.62,0,0,1-1.1-3.43A13.62,13.62,0,0,1,191,159.27Z"/><path class="cls-4" d="M238.35,184.7a2.12,2.12,0,0,1,0,.4c0,.29,0,.68.07,1.17.06,1,.19,2.55.44,4.49.49,3.88,1.47,9.47,2.46,16.42l.09.65,0,.17v.07c-.16,0,.37,0-.36.1,0-.06,0,0,0-.07v0c-.32.09.45-.07.37-.07l0,.33c.09.43.19.87.28,1.32a20.74,20.74,0,0,0,.81,2.66,14.3,14.3,0,0,0,3.08,5,12.67,12.67,0,0,0,5.36,3.14,19.35,19.35,0,0,0,6.62.64l30.09-2,5.68-.37-.24.3-2.52-15.52.23.21L260.79,201h-.14l0-.14c-1.51-7.8-2.75-14.14-3.6-18.55-.41-2.17-.73-3.87-1-5-.1-.56-.17-1-.23-1.32a2.59,2.59,0,0,1-.06-.45,2.41,2.41,0,0,1,.11.44c.07.32.17.75.29,1.31.25,1.18.6,2.87,1.06,5,.9,4.4,2.18,10.72,3.77,18.5l-.17-.15,30.11,2.62h.2l0,.2c.81,5,1.66,10.17,2.53,15.52l.05.28-.29,0-5.68.37-30.09,1.93a19.59,19.59,0,0,1-6.78-.68,13.12,13.12,0,0,1-5.54-3.27,14.81,14.81,0,0,1-3.15-5.12,21.93,21.93,0,0,1-.81-2.71q-.14-.69-.27-1.35l-.06-.33c-.09,0,.69-.18.37-.07v0c-.05,0,.12,0-.11,0a1,1,0,0,1-.25,0h0v0l0-.17-.09-.65c-.93-6.95-1.86-12.54-2.29-16.45-.22-1.95-.32-3.47-.35-4.5,0-.52,0-.91,0-1.18A1.79,1.79,0,0,1,238.35,184.7Z"/></g></g></svg>